<mxfile host="app.diagrams.net" agent="Mozilla/5.0 (X11; Linux x86_64) AppleWebKit/537.36 (KHTML, like Gecko) Chrome/138.0.0.0 Safari/537.36" version="28.0.7">
  <diagram name="Page-1" id="CrOnmMi4J_5lJoW1jnji">
    <mxGraphModel dx="5704" dy="2904" grid="1" gridSize="10" guides="1" tooltips="1" connect="1" arrows="1" fold="1" page="1" pageScale="1" pageWidth="3300" pageHeight="2339" math="0" shadow="0">
      <root>
        <mxCell id="0" />
        <mxCell id="1" parent="0" />
        <mxCell id="Xvq-lza0X-djxPscBTqz-2" value="Board" style="swimlane;fontStyle=1;align=center;verticalAlign=top;childLayout=stackLayout;horizontal=1;startSize=26;horizontalStack=0;resizeParent=1;resizeParentMax=0;resizeLast=0;collapsible=1;marginBottom=0;whiteSpace=wrap;html=1;" parent="1" vertex="1">
          <mxGeometry x="10" y="140" width="490" height="330" as="geometry" />
        </mxCell>
        <mxCell id="Xvq-lza0X-djxPscBTqz-3" value="&lt;div&gt;currentCasePlayers : int&lt;/div&gt;&lt;div&gt;board : int[]&lt;/div&gt;&lt;div&gt;tools : Tools&lt;/div&gt;" style="text;strokeColor=none;fillColor=none;align=left;verticalAlign=top;spacingLeft=4;spacingRight=4;overflow=hidden;rotatable=0;points=[[0,0.5],[1,0.5]];portConstraint=eastwest;whiteSpace=wrap;html=1;" parent="Xvq-lza0X-djxPscBTqz-2" vertex="1">
          <mxGeometry y="26" width="490" height="64" as="geometry" />
        </mxCell>
        <mxCell id="Xvq-lza0X-djxPscBTqz-4" value="" style="line;strokeWidth=1;fillColor=none;align=left;verticalAlign=middle;spacingTop=-1;spacingLeft=3;spacingRight=3;rotatable=0;labelPosition=right;points=[];portConstraint=eastwest;strokeColor=inherit;" parent="Xvq-lza0X-djxPscBTqz-2" vertex="1">
          <mxGeometry y="90" width="490" height="8" as="geometry" />
        </mxCell>
        <mxCell id="Xvq-lza0X-djxPscBTqz-5" value="&lt;div&gt;Board()&lt;/div&gt;&lt;div&gt;getCurrentCasePlayers() : int&lt;/div&gt;&lt;div&gt;setNewCurrentCasePlayers(newCurrentCasePlayers : int) : void&lt;/div&gt;&lt;div&gt;getBoard() : int[]&lt;/div&gt;&lt;div&gt;movePlayer(steps : int, boardClass : Board, menu : Menu, user : User, game : Game, connection : Connection, database : Database, level : Level) : void&lt;/div&gt;&lt;div&gt;outOfBoard(positionNow : int, boardClass : Board, boardInt : int[]) : void&lt;/div&gt;&lt;div&gt;displayBoard() : void&lt;/div&gt;&lt;div&gt;setNewBoard(newBoard : int[]) : void&lt;/div&gt;&lt;div&gt;setNewCellPlayer(boardInt : int[], newPosition : int, displayMessage : boolean, connection : Connection, database : Database, user : User) : void&lt;br&gt;setRandomCellBoard(cell : int[], random : Random, valueBox : int[], type : String, difficulty : String) : void&lt;/div&gt;&lt;div&gt;chooseLevelDifficulty(cell : int[], type : String, difficulty : String) : int&lt;/div&gt;" style="text;strokeColor=none;fillColor=none;align=left;verticalAlign=top;spacingLeft=4;spacingRight=4;overflow=hidden;rotatable=0;points=[[0,0.5],[1,0.5]];portConstraint=eastwest;whiteSpace=wrap;html=1;" parent="Xvq-lza0X-djxPscBTqz-2" vertex="1">
          <mxGeometry y="98" width="490" height="232" as="geometry" />
        </mxCell>
        <mxCell id="pagqS9b1QipSSQt8SLFa-83" style="edgeStyle=orthogonalEdgeStyle;rounded=0;orthogonalLoop=1;jettySize=auto;html=1;entryX=0.5;entryY=0;entryDx=0;entryDy=0;" parent="1" source="mu9f99pklsNn_qZX0C5U-1" target="Xvq-lza0X-djxPscBTqz-2" edge="1">
          <mxGeometry relative="1" as="geometry" />
        </mxCell>
        <mxCell id="pagqS9b1QipSSQt8SLFa-84" style="edgeStyle=orthogonalEdgeStyle;rounded=0;orthogonalLoop=1;jettySize=auto;html=1;entryX=0.5;entryY=0;entryDx=0;entryDy=0;" parent="1" source="mu9f99pklsNn_qZX0C5U-1" target="kYztOx51puu3Mf80ylwT-2" edge="1">
          <mxGeometry relative="1" as="geometry" />
        </mxCell>
        <mxCell id="pagqS9b1QipSSQt8SLFa-85" style="edgeStyle=orthogonalEdgeStyle;rounded=0;orthogonalLoop=1;jettySize=auto;html=1;entryX=0.5;entryY=0;entryDx=0;entryDy=0;" parent="1" source="mu9f99pklsNn_qZX0C5U-1" target="kYztOx51puu3Mf80ylwT-6" edge="1">
          <mxGeometry relative="1" as="geometry" />
        </mxCell>
        <mxCell id="pagqS9b1QipSSQt8SLFa-86" style="edgeStyle=orthogonalEdgeStyle;rounded=0;orthogonalLoop=1;jettySize=auto;html=1;entryX=0.5;entryY=0;entryDx=0;entryDy=0;" parent="1" source="mu9f99pklsNn_qZX0C5U-1" target="pagqS9b1QipSSQt8SLFa-6" edge="1">
          <mxGeometry relative="1" as="geometry" />
        </mxCell>
        <mxCell id="pagqS9b1QipSSQt8SLFa-87" style="edgeStyle=orthogonalEdgeStyle;rounded=0;orthogonalLoop=1;jettySize=auto;html=1;entryX=0.5;entryY=0;entryDx=0;entryDy=0;" parent="1" source="mu9f99pklsNn_qZX0C5U-1" target="pagqS9b1QipSSQt8SLFa-10" edge="1">
          <mxGeometry relative="1" as="geometry" />
        </mxCell>
        <mxCell id="pagqS9b1QipSSQt8SLFa-88" style="edgeStyle=orthogonalEdgeStyle;rounded=0;orthogonalLoop=1;jettySize=auto;html=1;entryX=0.5;entryY=0;entryDx=0;entryDy=0;" parent="1" source="mu9f99pklsNn_qZX0C5U-1" target="kYztOx51puu3Mf80ylwT-15" edge="1">
          <mxGeometry relative="1" as="geometry" />
        </mxCell>
        <mxCell id="pagqS9b1QipSSQt8SLFa-91" style="edgeStyle=orthogonalEdgeStyle;rounded=0;orthogonalLoop=1;jettySize=auto;html=1;entryX=0.5;entryY=0;entryDx=0;entryDy=0;" parent="1" source="mu9f99pklsNn_qZX0C5U-1" target="kYztOx51puu3Mf80ylwT-19" edge="1">
          <mxGeometry relative="1" as="geometry" />
        </mxCell>
        <mxCell id="pagqS9b1QipSSQt8SLFa-93" style="edgeStyle=orthogonalEdgeStyle;rounded=0;orthogonalLoop=1;jettySize=auto;html=1;entryX=0.5;entryY=0;entryDx=0;entryDy=0;" parent="1" source="mu9f99pklsNn_qZX0C5U-1" target="pagqS9b1QipSSQt8SLFa-30" edge="1">
          <mxGeometry relative="1" as="geometry" />
        </mxCell>
        <mxCell id="mu9f99pklsNn_qZX0C5U-1" value="Configurations" style="shape=folder;fontStyle=1;spacingTop=10;tabWidth=40;tabHeight=14;tabPosition=left;html=1;whiteSpace=wrap;" parent="1" vertex="1">
          <mxGeometry x="1775" y="30" width="100" height="60" as="geometry" />
        </mxCell>
        <mxCell id="pagqS9b1QipSSQt8SLFa-109" style="edgeStyle=orthogonalEdgeStyle;rounded=0;orthogonalLoop=1;jettySize=auto;html=1;entryX=0.5;entryY=0;entryDx=0;entryDy=0;" parent="1" source="mu9f99pklsNn_qZX0C5U-36" target="mu9f99pklsNn_qZX0C5U-37" edge="1">
          <mxGeometry relative="1" as="geometry" />
        </mxCell>
        <mxCell id="pagqS9b1QipSSQt8SLFa-110" style="edgeStyle=orthogonalEdgeStyle;rounded=0;orthogonalLoop=1;jettySize=auto;html=1;entryX=0.5;entryY=0;entryDx=0;entryDy=0;" parent="1" source="mu9f99pklsNn_qZX0C5U-36" target="mu9f99pklsNn_qZX0C5U-41" edge="1">
          <mxGeometry relative="1" as="geometry" />
        </mxCell>
        <mxCell id="pagqS9b1QipSSQt8SLFa-112" style="edgeStyle=orthogonalEdgeStyle;rounded=0;orthogonalLoop=1;jettySize=auto;html=1;entryX=0.5;entryY=0;entryDx=0;entryDy=0;" parent="1" source="mu9f99pklsNn_qZX0C5U-36" target="kYztOx51puu3Mf80ylwT-74" edge="1">
          <mxGeometry relative="1" as="geometry" />
        </mxCell>
        <mxCell id="pagqS9b1QipSSQt8SLFa-113" style="edgeStyle=orthogonalEdgeStyle;rounded=0;orthogonalLoop=1;jettySize=auto;html=1;entryX=0.5;entryY=0;entryDx=0;entryDy=0;" parent="1" source="mu9f99pklsNn_qZX0C5U-36" target="pagqS9b1QipSSQt8SLFa-96" edge="1">
          <mxGeometry relative="1" as="geometry" />
        </mxCell>
        <mxCell id="pagqS9b1QipSSQt8SLFa-114" style="edgeStyle=orthogonalEdgeStyle;rounded=0;orthogonalLoop=1;jettySize=auto;html=1;entryX=0.5;entryY=0;entryDx=0;entryDy=0;" parent="1" source="mu9f99pklsNn_qZX0C5U-36" target="pagqS9b1QipSSQt8SLFa-101" edge="1">
          <mxGeometry relative="1" as="geometry" />
        </mxCell>
        <mxCell id="mu9f99pklsNn_qZX0C5U-36" value="Game" style="shape=folder;fontStyle=1;spacingTop=10;tabWidth=40;tabHeight=14;tabPosition=left;html=1;whiteSpace=wrap;" parent="1" vertex="1">
          <mxGeometry x="1600" y="1000" width="100" height="50" as="geometry" />
        </mxCell>
        <mxCell id="mu9f99pklsNn_qZX0C5U-37" value="Dice" style="swimlane;fontStyle=1;align=center;verticalAlign=top;childLayout=stackLayout;horizontal=1;startSize=26;horizontalStack=0;resizeParent=1;resizeParentMax=0;resizeLast=0;collapsible=1;marginBottom=0;whiteSpace=wrap;html=1;" parent="1" vertex="1">
          <mxGeometry x="60" y="1135" width="160" height="60" as="geometry" />
        </mxCell>
        <mxCell id="mu9f99pklsNn_qZX0C5U-39" value="" style="line;strokeWidth=1;fillColor=none;align=left;verticalAlign=middle;spacingTop=-1;spacingLeft=3;spacingRight=3;rotatable=0;labelPosition=right;points=[];portConstraint=eastwest;strokeColor=inherit;" parent="mu9f99pklsNn_qZX0C5U-37" vertex="1">
          <mxGeometry y="26" width="160" height="8" as="geometry" />
        </mxCell>
        <mxCell id="mu9f99pklsNn_qZX0C5U-40" value="diceRoll() : int" style="text;strokeColor=none;fillColor=none;align=left;verticalAlign=top;spacingLeft=4;spacingRight=4;overflow=hidden;rotatable=0;points=[[0,0.5],[1,0.5]];portConstraint=eastwest;whiteSpace=wrap;html=1;" parent="mu9f99pklsNn_qZX0C5U-37" vertex="1">
          <mxGeometry y="34" width="160" height="26" as="geometry" />
        </mxCell>
        <mxCell id="mu9f99pklsNn_qZX0C5U-41" value="Game" style="swimlane;fontStyle=1;align=center;verticalAlign=top;childLayout=stackLayout;horizontal=1;startSize=26;horizontalStack=0;resizeParent=1;resizeParentMax=0;resizeLast=0;collapsible=1;marginBottom=0;whiteSpace=wrap;html=1;" parent="1" vertex="1">
          <mxGeometry x="245" y="1135" width="640" height="170" as="geometry" />
        </mxCell>
        <mxCell id="mu9f99pklsNn_qZX0C5U-42" value="menuGame : Menu&lt;div&gt;user : User&lt;/div&gt;" style="text;strokeColor=none;fillColor=none;align=left;verticalAlign=top;spacingLeft=4;spacingRight=4;overflow=hidden;rotatable=0;points=[[0,0.5],[1,0.5]];portConstraint=eastwest;whiteSpace=wrap;html=1;" parent="mu9f99pklsNn_qZX0C5U-41" vertex="1">
          <mxGeometry y="26" width="640" height="34" as="geometry" />
        </mxCell>
        <mxCell id="mu9f99pklsNn_qZX0C5U-43" value="" style="line;strokeWidth=1;fillColor=none;align=left;verticalAlign=middle;spacingTop=-1;spacingLeft=3;spacingRight=3;rotatable=0;labelPosition=right;points=[];portConstraint=eastwest;strokeColor=inherit;" parent="mu9f99pklsNn_qZX0C5U-41" vertex="1">
          <mxGeometry y="60" width="640" height="8" as="geometry" />
        </mxCell>
        <mxCell id="mu9f99pklsNn_qZX0C5U-44" value="&lt;div&gt;preStart(connection: Connection, database : Database, game : Game ) : void&lt;/div&gt;start(menu : Menu, user : User) : void&lt;div&gt;creationPlayer&lt;span style=&quot;background-color: transparent; color: light-dark(rgb(0, 0, 0), rgb(255, 255, 255));&quot;&gt;(menu : Menu, user : User, connection : Connection, database : Database) : void&lt;/span&gt;&lt;/div&gt;&lt;div&gt;afterCreationPlayer(menu : Menu, user : User, database:&amp;nbsp; Database, connection : Connection, game : Game) : void&lt;span style=&quot;background-color: transparent; color: light-dark(rgb(0, 0, 0), rgb(255, 255, 255));&quot;&gt;&lt;/span&gt;&lt;/div&gt;&lt;div&gt;startGame(board: Board, user : User, game : Game) : void&lt;/div&gt;&lt;div&gt;playTurn(board: Board, user : User, game : Game) : void&lt;/div&gt;" style="text;strokeColor=none;fillColor=none;align=left;verticalAlign=top;spacingLeft=4;spacingRight=4;overflow=hidden;rotatable=0;points=[[0,0.5],[1,0.5]];portConstraint=eastwest;whiteSpace=wrap;html=1;" parent="mu9f99pklsNn_qZX0C5U-41" vertex="1">
          <mxGeometry y="68" width="640" height="102" as="geometry" />
        </mxCell>
        <mxCell id="mu9f99pklsNn_qZX0C5U-58" value="Box" style="swimlane;fontStyle=1;align=center;verticalAlign=top;childLayout=stackLayout;horizontal=1;startSize=26;horizontalStack=0;resizeParent=1;resizeParentMax=0;resizeLast=0;collapsible=1;marginBottom=0;whiteSpace=wrap;html=1;" parent="1" vertex="1">
          <mxGeometry x="30" y="1740" width="280" height="120" as="geometry" />
        </mxCell>
        <mxCell id="mu9f99pklsNn_qZX0C5U-60" value="" style="line;strokeWidth=1;fillColor=none;align=left;verticalAlign=middle;spacingTop=-1;spacingLeft=3;spacingRight=3;rotatable=0;labelPosition=right;points=[];portConstraint=eastwest;strokeColor=inherit;" parent="mu9f99pklsNn_qZX0C5U-58" vertex="1">
          <mxGeometry y="26" width="280" height="8" as="geometry" />
        </mxCell>
        <mxCell id="mu9f99pklsNn_qZX0C5U-61" value="haveBox(menu : Menu, boardClass : Board, user : User,&amp;nbsp; game : Game,&amp;nbsp; boardInt : int[],&amp;nbsp; caseNumber: int) : void" style="text;strokeColor=none;fillColor=none;align=left;verticalAlign=top;spacingLeft=4;spacingRight=4;overflow=hidden;rotatable=0;points=[[0,0.5],[1,0.5]];portConstraint=eastwest;whiteSpace=wrap;html=1;" parent="mu9f99pklsNn_qZX0C5U-58" vertex="1">
          <mxGeometry y="34" width="280" height="86" as="geometry" />
        </mxCell>
        <mxCell id="mu9f99pklsNn_qZX0C5U-62" style="edgeStyle=orthogonalEdgeStyle;rounded=0;orthogonalLoop=1;jettySize=auto;html=1;entryX=0.5;entryY=0;entryDx=0;entryDy=0;" parent="1" source="mu9f99pklsNn_qZX0C5U-65" target="mu9f99pklsNn_qZX0C5U-58" edge="1">
          <mxGeometry relative="1" as="geometry" />
        </mxCell>
        <mxCell id="GvkOkcemFnVWm2Thvm6O-7" style="edgeStyle=orthogonalEdgeStyle;rounded=0;orthogonalLoop=1;jettySize=auto;html=1;entryX=0.5;entryY=0;entryDx=0;entryDy=0;" parent="1" source="mu9f99pklsNn_qZX0C5U-65" target="GvkOkcemFnVWm2Thvm6O-3" edge="1">
          <mxGeometry relative="1" as="geometry" />
        </mxCell>
        <mxCell id="GvkOkcemFnVWm2Thvm6O-8" style="edgeStyle=orthogonalEdgeStyle;rounded=0;orthogonalLoop=1;jettySize=auto;html=1;entryX=0.5;entryY=0;entryDx=0;entryDy=0;" parent="1" source="mu9f99pklsNn_qZX0C5U-65" target="mu9f99pklsNn_qZX0C5U-70" edge="1">
          <mxGeometry relative="1" as="geometry" />
        </mxCell>
        <mxCell id="GvkOkcemFnVWm2Thvm6O-9" style="edgeStyle=orthogonalEdgeStyle;rounded=0;orthogonalLoop=1;jettySize=auto;html=1;entryX=0.5;entryY=0;entryDx=0;entryDy=0;" parent="1" source="mu9f99pklsNn_qZX0C5U-65" target="mu9f99pklsNn_qZX0C5U-74" edge="1">
          <mxGeometry relative="1" as="geometry" />
        </mxCell>
        <mxCell id="mu9f99pklsNn_qZX0C5U-65" value="Verifications" style="shape=folder;fontStyle=1;spacingTop=10;tabWidth=40;tabHeight=14;tabPosition=left;html=1;whiteSpace=wrap;" parent="1" vertex="1">
          <mxGeometry x="510" y="1610" width="100" height="50" as="geometry" />
        </mxCell>
        <mxCell id="mu9f99pklsNn_qZX0C5U-70" value="EndGame" style="swimlane;fontStyle=1;align=center;verticalAlign=top;childLayout=stackLayout;horizontal=1;startSize=26;horizontalStack=0;resizeParent=1;resizeParentMax=0;resizeLast=0;collapsible=1;marginBottom=0;whiteSpace=wrap;html=1;" parent="1" vertex="1">
          <mxGeometry x="750" y="1740" width="160" height="90" as="geometry" />
        </mxCell>
        <mxCell id="mu9f99pklsNn_qZX0C5U-72" value="" style="line;strokeWidth=1;fillColor=none;align=left;verticalAlign=middle;spacingTop=-1;spacingLeft=3;spacingRight=3;rotatable=0;labelPosition=right;points=[];portConstraint=eastwest;strokeColor=inherit;" parent="mu9f99pklsNn_qZX0C5U-70" vertex="1">
          <mxGeometry y="26" width="160" height="8" as="geometry" />
        </mxCell>
        <mxCell id="mu9f99pklsNn_qZX0C5U-73" value="endGame(type: String, menu : Menu) : void" style="text;strokeColor=none;fillColor=none;align=left;verticalAlign=top;spacingLeft=4;spacingRight=4;overflow=hidden;rotatable=0;points=[[0,0.5],[1,0.5]];portConstraint=eastwest;whiteSpace=wrap;html=1;" parent="mu9f99pklsNn_qZX0C5U-70" vertex="1">
          <mxGeometry y="34" width="160" height="56" as="geometry" />
        </mxCell>
        <mxCell id="mu9f99pklsNn_qZX0C5U-74" value="Cell" style="swimlane;fontStyle=1;align=center;verticalAlign=top;childLayout=stackLayout;horizontal=1;startSize=26;horizontalStack=0;resizeParent=1;resizeParentMax=0;resizeLast=0;collapsible=1;marginBottom=0;whiteSpace=wrap;html=1;" parent="1" vertex="1">
          <mxGeometry x="935" y="1740" width="510" height="240" as="geometry" />
        </mxCell>
        <mxCell id="mu9f99pklsNn_qZX0C5U-76" value="" style="line;strokeWidth=1;fillColor=none;align=left;verticalAlign=middle;spacingTop=-1;spacingLeft=3;spacingRight=3;rotatable=0;labelPosition=right;points=[];portConstraint=eastwest;strokeColor=inherit;" parent="mu9f99pklsNn_qZX0C5U-74" vertex="1">
          <mxGeometry y="26" width="510" height="8" as="geometry" />
        </mxCell>
        <mxCell id="mu9f99pklsNn_qZX0C5U-77" value="verifyCase(caseNumber : int, boardInt : int[] , boardClass : Board, menu : Menu, user : User&amp;nbsp;, game : Game&amp;nbsp;) throws OutOfBoardException : void&amp;nbsp;&lt;div&gt;outOfBoard(caseNumber : int, boardInt : int[] , boardClass : Board, menu : Menu, user : User&amp;nbsp;, game : Game&amp;nbsp;) throws OutOfBoardException : void&amp;nbsp;&lt;/div&gt;&lt;div&gt;endGame(menu :&amp;nbsp;&lt;span style=&quot;background-color: transparent; color: light-dark(rgb(0, 0, 0), rgb(255, 255, 255));&quot;&gt;Menu&lt;/span&gt;&lt;span style=&quot;background-color: transparent; color: light-dark(rgb(0, 0, 0), rgb(255, 255, 255));&quot;&gt;&amp;nbsp;&lt;/span&gt;&lt;span style=&quot;background-color: transparent; color: light-dark(rgb(0, 0, 0), rgb(255, 255, 255));&quot;&gt;, verificationCase :&amp;nbsp;&lt;/span&gt;&lt;span style=&quot;background-color: transparent; color: light-dark(rgb(0, 0, 0), rgb(255, 255, 255));&quot;&gt;int&lt;/span&gt;&lt;span style=&quot;background-color: transparent; color: light-dark(rgb(0, 0, 0), rgb(255, 255, 255));&quot;&gt;&amp;nbsp;&lt;/span&gt;&lt;span style=&quot;background-color: transparent; color: light-dark(rgb(0, 0, 0), rgb(255, 255, 255));&quot;&gt;) : void&lt;/span&gt;&lt;/div&gt;&lt;div&gt;outOfBoard(caseNumber : int, boardInt : int[] , boardClass : Board, menu : Menu, user : User&amp;nbsp;, game : Game&amp;nbsp;) throws OutOfBoardException : void&amp;nbsp;&lt;/div&gt;&lt;div&gt;enemyCell(verificationCase :&amp;nbsp;&lt;span style=&quot;background-color: transparent; color: light-dark(rgb(0, 0, 0), rgb(255, 255, 255));&quot;&gt;int&lt;/span&gt;&lt;span style=&quot;background-color: transparent; color: light-dark(rgb(0, 0, 0), rgb(255, 255, 255));&quot;&gt;&amp;nbsp;&lt;/span&gt;&lt;span style=&quot;background-color: transparent; color: light-dark(rgb(0, 0, 0), rgb(255, 255, 255));&quot;&gt;, caseNumber : int, boardInt : int[] , boardClass : Board, menu : Menu, user : User&amp;nbsp;, game : Game&amp;nbsp;) throws OutOfBoardException : void&amp;nbsp;&lt;/span&gt;&lt;/div&gt;&lt;div&gt;boxCell(verificationCase : int, caseNumber : int, boardInt : int[] , boardClass : Board, menu : Menu, user : User&amp;nbsp;, game : Game&amp;nbsp;) throws OutOfBoardException : void&amp;nbsp;&lt;/div&gt;&lt;div&gt;nothingCell(verificationCase : int, caseNumber : int, boardInt : int[] , boardClass : Board, menu : Menu, user : User&amp;nbsp;, game : Game&amp;nbsp;) throws OutOfBoardException : void&amp;nbsp;&lt;/div&gt;" style="text;strokeColor=none;fillColor=none;align=left;verticalAlign=top;spacingLeft=4;spacingRight=4;overflow=hidden;rotatable=0;points=[[0,0.5],[1,0.5]];portConstraint=eastwest;whiteSpace=wrap;html=1;" parent="mu9f99pklsNn_qZX0C5U-74" vertex="1">
          <mxGeometry y="34" width="510" height="206" as="geometry" />
        </mxCell>
        <mxCell id="pagqS9b1QipSSQt8SLFa-2" style="edgeStyle=orthogonalEdgeStyle;rounded=0;orthogonalLoop=1;jettySize=auto;html=1;entryX=0.5;entryY=0;entryDx=0;entryDy=0;" parent="1" source="kYztOx51puu3Mf80ylwT-2" target="kYztOx51puu3Mf80ylwT-28" edge="1">
          <mxGeometry relative="1" as="geometry" />
        </mxCell>
        <mxCell id="pagqS9b1QipSSQt8SLFa-3" style="edgeStyle=orthogonalEdgeStyle;rounded=0;orthogonalLoop=1;jettySize=auto;html=1;entryX=0.5;entryY=0;entryDx=0;entryDy=0;" parent="1" source="kYztOx51puu3Mf80ylwT-2" target="kYztOx51puu3Mf80ylwT-33" edge="1">
          <mxGeometry relative="1" as="geometry" />
        </mxCell>
        <mxCell id="kYztOx51puu3Mf80ylwT-2" value="Character" style="swimlane;fontStyle=1;align=center;verticalAlign=top;childLayout=stackLayout;horizontal=1;startSize=26;horizontalStack=0;resizeParent=1;resizeParentMax=0;resizeLast=0;collapsible=1;marginBottom=0;whiteSpace=wrap;html=1;" parent="1" vertex="1">
          <mxGeometry x="530" y="140" width="340" height="560" as="geometry" />
        </mxCell>
        <mxCell id="kYztOx51puu3Mf80ylwT-3" value="&lt;div&gt;type :&amp;nbsp;&lt;span style=&quot;background-color: transparent; color: light-dark(rgb(0, 0, 0), rgb(255, 255, 255));&quot;&gt;String&lt;/span&gt;&lt;/div&gt;&lt;div&gt;&lt;span style=&quot;background-color: transparent; color: light-dark(rgb(0, 0, 0), rgb(255, 255, 255));&quot;&gt;name&amp;nbsp;&lt;/span&gt;&lt;span style=&quot;background-color: transparent; color: light-dark(rgb(0, 0, 0), rgb(255, 255, 255));&quot;&gt;:&amp;nbsp;&lt;/span&gt;&lt;span style=&quot;background-color: transparent; color: light-dark(rgb(0, 0, 0), rgb(255, 255, 255));&quot;&gt;String&lt;/span&gt;&lt;/div&gt;&lt;div&gt;&lt;span style=&quot;background-color: transparent; color: light-dark(rgb(0, 0, 0), rgb(255, 255, 255));&quot;&gt;level : int&lt;/span&gt;&lt;/div&gt;&lt;div&gt;&lt;span style=&quot;background-color: transparent; color: light-dark(rgb(0, 0, 0), rgb(255, 255, 255));&quot;&gt;exp : int&lt;/span&gt;&lt;/div&gt;&lt;div&gt;&lt;span style=&quot;background-color: transparent; color: light-dark(rgb(0, 0, 0), rgb(255, 255, 255));&quot;&gt;lifePoints&amp;nbsp;&lt;/span&gt;&lt;span style=&quot;background-color: transparent; color: light-dark(rgb(0, 0, 0), rgb(255, 255, 255));&quot;&gt;:&amp;nbsp;&lt;/span&gt;&lt;span style=&quot;background-color: transparent; color: light-dark(rgb(0, 0, 0), rgb(255, 255, 255));&quot;&gt;int&lt;/span&gt;&lt;/div&gt;&lt;div&gt;&lt;span style=&quot;background-color: transparent; color: light-dark(rgb(0, 0, 0), rgb(255, 255, 255));&quot;&gt;lifeDefault : int&lt;/span&gt;&lt;/div&gt;&lt;div&gt;maxHealth : int&lt;/div&gt;&lt;div&gt;&lt;span style=&quot;background-color: transparent; color: light-dark(rgb(0, 0, 0), rgb(255, 255, 255));&quot;&gt;attackLevel&amp;nbsp;&lt;/span&gt;&lt;span style=&quot;background-color: transparent; color: light-dark(rgb(0, 0, 0), rgb(255, 255, 255));&quot;&gt;:&amp;nbsp;&lt;/span&gt;&lt;span style=&quot;background-color: transparent; color: light-dark(rgb(0, 0, 0), rgb(255, 255, 255));&quot;&gt;int&lt;/span&gt;&lt;/div&gt;&lt;div&gt;money : int&lt;/div&gt;&lt;div&gt;offensiveEquipment&amp;nbsp;&lt;span style=&quot;background-color: transparent; color: light-dark(rgb(0, 0, 0), rgb(255, 255, 255));&quot;&gt;:&amp;nbsp;&lt;/span&gt;&lt;span style=&quot;background-color: transparent; color: light-dark(rgb(0, 0, 0), rgb(255, 255, 255));&quot;&gt;String&lt;/span&gt;&lt;/div&gt;&lt;div&gt;&lt;span style=&quot;background-color: transparent; color: light-dark(rgb(0, 0, 0), rgb(255, 255, 255));&quot;&gt;defensiveEquipment&amp;nbsp;&lt;/span&gt;&lt;span style=&quot;background-color: transparent; color: light-dark(rgb(0, 0, 0), rgb(255, 255, 255));&quot;&gt;:&amp;nbsp;&lt;/span&gt;&lt;span style=&quot;background-color: transparent; color: light-dark(rgb(0, 0, 0), rgb(255, 255, 255));&quot;&gt;String&lt;/span&gt;&lt;/div&gt;&lt;div&gt;&lt;span style=&quot;background-color: transparent; color: light-dark(rgb(0, 0, 0), rgb(255, 255, 255));&quot;&gt;&lt;br&gt;&lt;/span&gt;&lt;/div&gt;" style="text;strokeColor=none;fillColor=none;align=left;verticalAlign=top;spacingLeft=4;spacingRight=4;overflow=hidden;rotatable=0;points=[[0,0.5],[1,0.5]];portConstraint=eastwest;whiteSpace=wrap;html=1;" parent="kYztOx51puu3Mf80ylwT-2" vertex="1">
          <mxGeometry y="26" width="340" height="164" as="geometry" />
        </mxCell>
        <mxCell id="kYztOx51puu3Mf80ylwT-4" value="" style="line;strokeWidth=1;fillColor=none;align=left;verticalAlign=middle;spacingTop=-1;spacingLeft=3;spacingRight=3;rotatable=0;labelPosition=right;points=[];portConstraint=eastwest;strokeColor=inherit;" parent="kYztOx51puu3Mf80ylwT-2" vertex="1">
          <mxGeometry y="190" width="340" height="10" as="geometry" />
        </mxCell>
        <mxCell id="kYztOx51puu3Mf80ylwT-5" value="&lt;div&gt;Character()&lt;br&gt;getType() : String&lt;/div&gt;&lt;div&gt;setType(type : String) : void&lt;/div&gt;&lt;div&gt;getName() : String&lt;/div&gt;&lt;div&gt;setName(name : String) : void&lt;/div&gt;&lt;div&gt;getLifePoints() : int&lt;br&gt;setLifePoints(lifePoints : int) : void&lt;/div&gt;&lt;div&gt;getAttackLevel()&lt;span style=&quot;background-color: transparent; color: light-dark(rgb(0, 0, 0), rgb(255, 255, 255));&quot;&gt;: int&lt;/span&gt;&lt;/div&gt;&lt;div&gt;&lt;span style=&quot;background-color: transparent; color: light-dark(rgb(0, 0, 0), rgb(255, 255, 255));&quot;&gt;setAttackLevel(attackLevel : int): void&lt;/span&gt;&lt;/div&gt;&lt;div&gt;getOffensiveEquipment() : void&lt;/div&gt;&lt;div&gt;setOffensiveEquipment(offensiveEquipment : String) : void&lt;/div&gt;&lt;div&gt;&lt;div&gt;getDefensiveEquipment() : void&lt;/div&gt;&lt;div&gt;setDefensiveEquipment(defensiveEquipment : String) : void&lt;/div&gt;&lt;/div&gt;&lt;div&gt;setName(name: String) : void&lt;/div&gt;&lt;div&gt;getLifeDefault : int&lt;/div&gt;&lt;div&gt;getMaxHealth : int&lt;/div&gt;&lt;div&gt;setMaxHealth(maxHealth : int) : void&lt;/div&gt;&lt;div&gt;getLevel() : int&lt;/div&gt;&lt;div&gt;getExp() : int&lt;/div&gt;&lt;div&gt;setExp(exp : int) : int&lt;/div&gt;&lt;div&gt;getMoney() : int&lt;/div&gt;&lt;div&gt;setMoney(money : int) : void&lt;/div&gt;&lt;div&gt;setLifeDefault(lifeDefault : int ) : void&lt;/div&gt;&lt;div&gt;toString() : String&lt;/div&gt;" style="text;strokeColor=none;fillColor=none;align=left;verticalAlign=top;spacingLeft=4;spacingRight=4;overflow=hidden;rotatable=0;points=[[0,0.5],[1,0.5]];portConstraint=eastwest;whiteSpace=wrap;html=1;" parent="kYztOx51puu3Mf80ylwT-2" vertex="1">
          <mxGeometry y="200" width="340" height="360" as="geometry" />
        </mxCell>
        <mxCell id="kYztOx51puu3Mf80ylwT-6" value="Colors" style="swimlane;fontStyle=1;align=center;verticalAlign=top;childLayout=stackLayout;horizontal=1;startSize=26;horizontalStack=0;resizeParent=1;resizeParentMax=0;resizeLast=0;collapsible=1;marginBottom=0;whiteSpace=wrap;html=1;" parent="1" vertex="1">
          <mxGeometry x="890" y="140" width="190" height="250" as="geometry" />
        </mxCell>
        <mxCell id="kYztOx51puu3Mf80ylwT-7" value="&lt;div&gt;RESET :&amp;nbsp;&lt;span style=&quot;background-color: transparent; color: light-dark(rgb(0, 0, 0), rgb(255, 255, 255));&quot;&gt;String&lt;/span&gt;&lt;/div&gt;&lt;div&gt;ENEMY_RED&amp;nbsp;&lt;span style=&quot;background-color: transparent; color: light-dark(rgb(0, 0, 0), rgb(255, 255, 255));&quot;&gt;:&amp;nbsp;&lt;/span&gt;&lt;span style=&quot;background-color: transparent; color: light-dark(rgb(0, 0, 0), rgb(255, 255, 255));&quot;&gt;String&lt;/span&gt;&lt;/div&gt;&lt;div&gt;BOX_GREEN&amp;nbsp;&lt;span style=&quot;color: light-dark(rgb(0, 0, 0), rgb(255, 255, 255)); background-color: transparent;&quot;&gt;:&amp;nbsp;&lt;/span&gt;&lt;span style=&quot;color: light-dark(rgb(0, 0, 0), rgb(255, 255, 255)); background-color: transparent;&quot;&gt;String&lt;/span&gt;&lt;span style=&quot;background-color: transparent; color: light-dark(rgb(0, 0, 0), rgb(255, 255, 255));&quot;&gt;&lt;/span&gt;&lt;/div&gt;&lt;div&gt;NOTHING_BLUE&amp;nbsp;&lt;span style=&quot;background-color: transparent; color: light-dark(rgb(0, 0, 0), rgb(255, 255, 255));&quot;&gt;:&amp;nbsp;&lt;/span&gt;&lt;span style=&quot;background-color: transparent; color: light-dark(rgb(0, 0, 0), rgb(255, 255, 255));&quot;&gt;String&lt;/span&gt;&lt;/div&gt;&lt;div&gt;END_PURPLE&amp;nbsp;&lt;span style=&quot;background-color: transparent; color: light-dark(rgb(0, 0, 0), rgb(255, 255, 255));&quot;&gt;:&amp;nbsp;&lt;/span&gt;&lt;span style=&quot;background-color: transparent; color: light-dark(rgb(0, 0, 0), rgb(255, 255, 255));&quot;&gt;String&lt;/span&gt;&lt;/div&gt;&lt;div&gt;RUNGAME_CYAN&lt;span style=&quot;background-color: transparent; color: light-dark(rgb(0, 0, 0), rgb(255, 255, 255));&quot;&gt;:&amp;nbsp;&lt;/span&gt;&lt;span style=&quot;background-color: transparent; color: light-dark(rgb(0, 0, 0), rgb(255, 255, 255));&quot;&gt;String&lt;/span&gt;&lt;/div&gt;&lt;div&gt;START_WHITE&amp;nbsp;&lt;span style=&quot;background-color: transparent; color: light-dark(rgb(0, 0, 0), rgb(255, 255, 255));&quot;&gt;:&amp;nbsp;&lt;/span&gt;&lt;span style=&quot;background-color: transparent; color: light-dark(rgb(0, 0, 0), rgb(255, 255, 255));&quot;&gt;String&lt;/span&gt;&lt;/div&gt;&lt;div&gt;CHOICE_YELLOW&lt;span style=&quot;background-color: transparent; color: light-dark(rgb(0, 0, 0), rgb(255, 255, 255));&quot;&gt;:&amp;nbsp;&lt;/span&gt;&lt;span style=&quot;background-color: transparent; color: light-dark(rgb(0, 0, 0), rgb(255, 255, 255));&quot;&gt;String&lt;/span&gt;&lt;/div&gt;&lt;div&gt;SEPARATION_BLACK&lt;span style=&quot;background-color: transparent; color: light-dark(rgb(0, 0, 0), rgb(255, 255, 255));&quot;&gt;:&amp;nbsp;&lt;/span&gt;&lt;span style=&quot;background-color: transparent; color: light-dark(rgb(0, 0, 0), rgb(255, 255, 255));&quot;&gt;String&lt;/span&gt;&lt;/div&gt;&lt;div&gt;&lt;div&gt;&lt;span style=&quot;background-color: transparent; color: light-dark(rgb(0, 0, 0), rgb(255, 255, 255));&quot;&gt;DICE_MAGENTA :&amp;nbsp;&lt;/span&gt;&lt;span style=&quot;background-color: transparent; color: light-dark(rgb(0, 0, 0), rgb(255, 255, 255));&quot;&gt;String&lt;/span&gt;&lt;/div&gt;&lt;/div&gt;&lt;div&gt;&lt;div&gt;&lt;span style=&quot;background-color: transparent;&quot;&gt;CELL_BRIGHTMAGENTA&lt;/span&gt;&lt;span style=&quot;background-color: transparent; color: light-dark(rgb(0, 0, 0), rgb(255, 255, 255));&quot;&gt;&amp;nbsp;&lt;/span&gt;&lt;span style=&quot;background-color: transparent; color: light-dark(rgb(0, 0, 0), rgb(255, 255, 255));&quot;&gt;:&amp;nbsp;&lt;/span&gt;&lt;span style=&quot;background-color: transparent; color: light-dark(rgb(0, 0, 0), rgb(255, 255, 255));&quot;&gt;String&lt;/span&gt;&lt;/div&gt;&lt;div&gt;PLAYER_BRIYEL&amp;nbsp;&lt;span style=&quot;background-color: transparent; color: light-dark(rgb(0, 0, 0), rgb(255, 255, 255));&quot;&gt;:&amp;nbsp;&lt;/span&gt;&lt;span style=&quot;background-color: transparent; color: light-dark(rgb(0, 0, 0), rgb(255, 255, 255));&quot;&gt;String&lt;br&gt;&lt;/span&gt;&lt;/div&gt;&lt;/div&gt;&lt;div&gt;MERCHANTS_BRICY&amp;nbsp;&lt;span style=&quot;color: light-dark(rgb(0, 0, 0), rgb(255, 255, 255)); background-color: transparent;&quot;&gt;:&amp;nbsp;&lt;/span&gt;&lt;span style=&quot;color: light-dark(rgb(0, 0, 0), rgb(255, 255, 255)); background-color: transparent;&quot;&gt;String&lt;/span&gt;&lt;span style=&quot;background-color: transparent; color: light-dark(rgb(0, 0, 0), rgb(255, 255, 255));&quot;&gt;&lt;/span&gt;&lt;/div&gt;&lt;div&gt;HOSTEL_BRIBLU&amp;nbsp;&lt;span style=&quot;color: light-dark(rgb(0, 0, 0), rgb(255, 255, 255)); background-color: transparent;&quot;&gt;:&amp;nbsp;&lt;/span&gt;&lt;span style=&quot;color: light-dark(rgb(0, 0, 0), rgb(255, 255, 255)); background-color: transparent;&quot;&gt;String&lt;/span&gt;&lt;span style=&quot;color: light-dark(rgb(0, 0, 0), rgb(255, 255, 255)); background-color: transparent;&quot;&gt;&lt;/span&gt;&lt;/div&gt;&lt;div&gt;BLACKSMITH_BRIYEL&amp;nbsp;&lt;span style=&quot;color: light-dark(rgb(0, 0, 0), rgb(255, 255, 255)); background-color: transparent;&quot;&gt;:&amp;nbsp;&lt;/span&gt;&lt;span style=&quot;color: light-dark(rgb(0, 0, 0), rgb(255, 255, 255)); background-color: transparent;&quot;&gt;String&lt;/span&gt;&lt;span style=&quot;color: light-dark(rgb(0, 0, 0), rgb(255, 255, 255)); background-color: transparent;&quot;&gt;&lt;/span&gt;&lt;/div&gt;" style="text;strokeColor=none;fillColor=none;align=left;verticalAlign=top;spacingLeft=4;spacingRight=4;overflow=hidden;rotatable=0;points=[[0,0.5],[1,0.5]];portConstraint=eastwest;whiteSpace=wrap;html=1;" parent="kYztOx51puu3Mf80ylwT-6" vertex="1">
          <mxGeometry y="26" width="190" height="224" as="geometry" />
        </mxCell>
        <mxCell id="kYztOx51puu3Mf80ylwT-15" value="DefensiveEquipment" style="swimlane;fontStyle=1;align=center;verticalAlign=top;childLayout=stackLayout;horizontal=1;startSize=26;horizontalStack=0;resizeParent=1;resizeParentMax=0;resizeLast=0;collapsible=1;marginBottom=0;whiteSpace=wrap;html=1;" parent="1" vertex="1">
          <mxGeometry x="1720" y="140" width="210" height="220" as="geometry" />
        </mxCell>
        <mxCell id="kYztOx51puu3Mf80ylwT-16" value="&lt;div&gt;name :&amp;nbsp;&lt;span style=&quot;background-color: transparent; color: light-dark(rgb(0, 0, 0), rgb(255, 255, 255));&quot;&gt;String&lt;/span&gt;&lt;/div&gt;&lt;div&gt;&lt;span style=&quot;background-color: transparent; color: light-dark(rgb(0, 0, 0), rgb(255, 255, 255));&quot;&gt;levelDefense :&amp;nbsp;&lt;/span&gt;&lt;span style=&quot;background-color: transparent; color: light-dark(rgb(0, 0, 0), rgb(255, 255, 255));&quot;&gt;int&lt;/span&gt;&lt;/div&gt;&lt;div&gt;&lt;span style=&quot;background-color: transparent; color: light-dark(rgb(0, 0, 0), rgb(255, 255, 255));&quot;&gt;idObject : int&lt;/span&gt;&lt;/div&gt;&lt;div&gt;&lt;span style=&quot;background-color: transparent; color: light-dark(rgb(0, 0, 0), rgb(255, 255, 255));&quot;&gt;valuePrice : int&lt;/span&gt;&lt;/div&gt;" style="text;strokeColor=none;fillColor=none;align=left;verticalAlign=top;spacingLeft=4;spacingRight=4;overflow=hidden;rotatable=0;points=[[0,0.5],[1,0.5]];portConstraint=eastwest;whiteSpace=wrap;html=1;" parent="kYztOx51puu3Mf80ylwT-15" vertex="1">
          <mxGeometry y="26" width="210" height="64" as="geometry" />
        </mxCell>
        <mxCell id="kYztOx51puu3Mf80ylwT-17" value="" style="line;strokeWidth=1;fillColor=none;align=left;verticalAlign=middle;spacingTop=-1;spacingLeft=3;spacingRight=3;rotatable=0;labelPosition=right;points=[];portConstraint=eastwest;strokeColor=inherit;" parent="kYztOx51puu3Mf80ylwT-15" vertex="1">
          <mxGeometry y="90" width="210" height="8" as="geometry" />
        </mxCell>
        <mxCell id="kYztOx51puu3Mf80ylwT-18" value="DefensiveEquipment(name: String, levelDefense : int) : void&lt;div&gt;&lt;div&gt;getName() : String&lt;/div&gt;&lt;div&gt;setName(name : String) : void&lt;/div&gt;&lt;/div&gt;&lt;div&gt;getLevelDefense() : void&lt;/div&gt;&lt;div&gt;setLevelDefense(&lt;/div&gt;&lt;div&gt;toString() : String&lt;/div&gt;" style="text;strokeColor=none;fillColor=none;align=left;verticalAlign=top;spacingLeft=4;spacingRight=4;overflow=hidden;rotatable=0;points=[[0,0.5],[1,0.5]];portConstraint=eastwest;whiteSpace=wrap;html=1;" parent="kYztOx51puu3Mf80ylwT-15" vertex="1">
          <mxGeometry y="98" width="210" height="122" as="geometry" />
        </mxCell>
        <mxCell id="pagqS9b1QipSSQt8SLFa-26" style="edgeStyle=orthogonalEdgeStyle;rounded=0;orthogonalLoop=1;jettySize=auto;html=1;entryX=0;entryY=0.25;entryDx=0;entryDy=0;" parent="1" source="kYztOx51puu3Mf80ylwT-19" target="kYztOx51puu3Mf80ylwT-55" edge="1">
          <mxGeometry relative="1" as="geometry">
            <Array as="points">
              <mxPoint x="2310" y="551" />
            </Array>
          </mxGeometry>
        </mxCell>
        <mxCell id="kYztOx51puu3Mf80ylwT-19" value="OffensiveEquipment" style="swimlane;fontStyle=1;align=center;verticalAlign=top;childLayout=stackLayout;horizontal=1;startSize=26;horizontalStack=0;resizeParent=1;resizeParentMax=0;resizeLast=0;collapsible=1;marginBottom=0;whiteSpace=wrap;html=1;" parent="1" vertex="1">
          <mxGeometry x="2280" y="140" width="210" height="210" as="geometry" />
        </mxCell>
        <mxCell id="kYztOx51puu3Mf80ylwT-20" value="&lt;div&gt;name :&amp;nbsp;&lt;span style=&quot;background-color: transparent; color: light-dark(rgb(0, 0, 0), rgb(255, 255, 255));&quot;&gt;String&lt;/span&gt;&lt;/div&gt;&lt;div&gt;&lt;span style=&quot;background-color: transparent;&quot;&gt;levelAttack&lt;/span&gt;&lt;span style=&quot;background-color: transparent; color: light-dark(rgb(0, 0, 0), rgb(255, 255, 255));&quot;&gt;&amp;nbsp;:&amp;nbsp;&lt;/span&gt;&lt;span style=&quot;background-color: transparent; color: light-dark(rgb(0, 0, 0), rgb(255, 255, 255));&quot;&gt;int&lt;/span&gt;&lt;/div&gt;&lt;div&gt;idObject : int&lt;span style=&quot;background-color: transparent; color: light-dark(rgb(0, 0, 0), rgb(255, 255, 255));&quot;&gt;&lt;/span&gt;&lt;/div&gt;" style="text;strokeColor=none;fillColor=none;align=left;verticalAlign=top;spacingLeft=4;spacingRight=4;overflow=hidden;rotatable=0;points=[[0,0.5],[1,0.5]];portConstraint=eastwest;whiteSpace=wrap;html=1;" parent="kYztOx51puu3Mf80ylwT-19" vertex="1">
          <mxGeometry y="26" width="210" height="54" as="geometry" />
        </mxCell>
        <mxCell id="kYztOx51puu3Mf80ylwT-21" value="" style="line;strokeWidth=1;fillColor=none;align=left;verticalAlign=middle;spacingTop=-1;spacingLeft=3;spacingRight=3;rotatable=0;labelPosition=right;points=[];portConstraint=eastwest;strokeColor=inherit;" parent="kYztOx51puu3Mf80ylwT-19" vertex="1">
          <mxGeometry y="80" width="210" height="8" as="geometry" />
        </mxCell>
        <mxCell id="kYztOx51puu3Mf80ylwT-22" value="OffensiveEquipment(name: String, levelAttack : int) : void&lt;div&gt;&lt;div&gt;getName() : String&lt;/div&gt;&lt;div&gt;setName(name : String) : void&lt;/div&gt;&lt;/div&gt;&lt;div&gt;toString() : String&lt;/div&gt;" style="text;strokeColor=none;fillColor=none;align=left;verticalAlign=top;spacingLeft=4;spacingRight=4;overflow=hidden;rotatable=0;points=[[0,0.5],[1,0.5]];portConstraint=eastwest;whiteSpace=wrap;html=1;" parent="kYztOx51puu3Mf80ylwT-19" vertex="1">
          <mxGeometry y="88" width="210" height="122" as="geometry" />
        </mxCell>
        <mxCell id="kYztOx51puu3Mf80ylwT-28" value="Warrior" style="swimlane;fontStyle=1;align=center;verticalAlign=top;childLayout=stackLayout;horizontal=1;startSize=26;horizontalStack=0;resizeParent=1;resizeParentMax=0;resizeLast=0;collapsible=1;marginBottom=0;whiteSpace=wrap;html=1;" parent="1" vertex="1">
          <mxGeometry x="530" y="770" width="150" height="70" as="geometry" />
        </mxCell>
        <mxCell id="kYztOx51puu3Mf80ylwT-30" value="" style="line;strokeWidth=1;fillColor=none;align=left;verticalAlign=middle;spacingTop=-1;spacingLeft=3;spacingRight=3;rotatable=0;labelPosition=right;points=[];portConstraint=eastwest;strokeColor=inherit;" parent="kYztOx51puu3Mf80ylwT-28" vertex="1">
          <mxGeometry y="26" width="150" height="10" as="geometry" />
        </mxCell>
        <mxCell id="kYztOx51puu3Mf80ylwT-31" value="&lt;div&gt;&lt;span style=&quot;background-color: transparent; color: light-dark(rgb(0, 0, 0), rgb(255, 255, 255));&quot;&gt;Warrior(name : String)&amp;nbsp;&lt;/span&gt;&lt;/div&gt;" style="text;strokeColor=none;fillColor=none;align=left;verticalAlign=top;spacingLeft=4;spacingRight=4;overflow=hidden;rotatable=0;points=[[0,0.5],[1,0.5]];portConstraint=eastwest;whiteSpace=wrap;html=1;" parent="kYztOx51puu3Mf80ylwT-28" vertex="1">
          <mxGeometry y="36" width="150" height="34" as="geometry" />
        </mxCell>
        <mxCell id="kYztOx51puu3Mf80ylwT-33" value="Wizard" style="swimlane;fontStyle=1;align=center;verticalAlign=top;childLayout=stackLayout;horizontal=1;startSize=26;horizontalStack=0;resizeParent=1;resizeParentMax=0;resizeLast=0;collapsible=1;marginBottom=0;whiteSpace=wrap;html=1;" parent="1" vertex="1">
          <mxGeometry x="730" y="770" width="140" height="70" as="geometry" />
        </mxCell>
        <mxCell id="kYztOx51puu3Mf80ylwT-34" value="" style="line;strokeWidth=1;fillColor=none;align=left;verticalAlign=middle;spacingTop=-1;spacingLeft=3;spacingRight=3;rotatable=0;labelPosition=right;points=[];portConstraint=eastwest;strokeColor=inherit;" parent="kYztOx51puu3Mf80ylwT-33" vertex="1">
          <mxGeometry y="26" width="140" height="10" as="geometry" />
        </mxCell>
        <mxCell id="kYztOx51puu3Mf80ylwT-35" value="&lt;div&gt;&lt;span style=&quot;background-color: transparent; color: light-dark(rgb(0, 0, 0), rgb(255, 255, 255));&quot;&gt;Wizard(name : String)&amp;nbsp;&lt;/span&gt;&lt;/div&gt;" style="text;strokeColor=none;fillColor=none;align=left;verticalAlign=top;spacingLeft=4;spacingRight=4;overflow=hidden;rotatable=0;points=[[0,0.5],[1,0.5]];portConstraint=eastwest;whiteSpace=wrap;html=1;" parent="kYztOx51puu3Mf80ylwT-33" vertex="1">
          <mxGeometry y="36" width="140" height="34" as="geometry" />
        </mxCell>
        <mxCell id="kYztOx51puu3Mf80ylwT-41" value="Potion" style="swimlane;fontStyle=1;align=center;verticalAlign=top;childLayout=stackLayout;horizontal=1;startSize=26;horizontalStack=0;resizeParent=1;resizeParentMax=0;resizeLast=0;collapsible=1;marginBottom=0;whiteSpace=wrap;html=1;" parent="1" vertex="1">
          <mxGeometry x="1770" y="520" width="160" height="84" as="geometry" />
        </mxCell>
        <mxCell id="kYztOx51puu3Mf80ylwT-43" value="" style="line;strokeWidth=1;fillColor=none;align=left;verticalAlign=middle;spacingTop=-1;spacingLeft=3;spacingRight=3;rotatable=0;labelPosition=right;points=[];portConstraint=eastwest;strokeColor=inherit;" parent="kYztOx51puu3Mf80ylwT-41" vertex="1">
          <mxGeometry y="26" width="160" height="8" as="geometry" />
        </mxCell>
        <mxCell id="kYztOx51puu3Mf80ylwT-44" value="Potion(name: String, levelDefense : int)" style="text;strokeColor=none;fillColor=none;align=left;verticalAlign=top;spacingLeft=4;spacingRight=4;overflow=hidden;rotatable=0;points=[[0,0.5],[1,0.5]];portConstraint=eastwest;whiteSpace=wrap;html=1;" parent="kYztOx51puu3Mf80ylwT-41" vertex="1">
          <mxGeometry y="34" width="160" height="50" as="geometry" />
        </mxCell>
        <mxCell id="kYztOx51puu3Mf80ylwT-45" value="Shiled" style="swimlane;fontStyle=1;align=center;verticalAlign=top;childLayout=stackLayout;horizontal=1;startSize=26;horizontalStack=0;resizeParent=1;resizeParentMax=0;resizeLast=0;collapsible=1;marginBottom=0;whiteSpace=wrap;html=1;" parent="1" vertex="1">
          <mxGeometry x="1770" y="380" width="160" height="84" as="geometry" />
        </mxCell>
        <mxCell id="kYztOx51puu3Mf80ylwT-47" value="" style="line;strokeWidth=1;fillColor=none;align=left;verticalAlign=middle;spacingTop=-1;spacingLeft=3;spacingRight=3;rotatable=0;labelPosition=right;points=[];portConstraint=eastwest;strokeColor=inherit;" parent="kYztOx51puu3Mf80ylwT-45" vertex="1">
          <mxGeometry y="26" width="160" height="8" as="geometry" />
        </mxCell>
        <mxCell id="kYztOx51puu3Mf80ylwT-48" value="&lt;span style=&quot;font-weight: 700; text-align: center;&quot;&gt;Shiled&lt;/span&gt;(name: String, levelDefense : int)" style="text;strokeColor=none;fillColor=none;align=left;verticalAlign=top;spacingLeft=4;spacingRight=4;overflow=hidden;rotatable=0;points=[[0,0.5],[1,0.5]];portConstraint=eastwest;whiteSpace=wrap;html=1;" parent="kYztOx51puu3Mf80ylwT-45" vertex="1">
          <mxGeometry y="34" width="160" height="50" as="geometry" />
        </mxCell>
        <mxCell id="kYztOx51puu3Mf80ylwT-51" value="Spell" style="swimlane;fontStyle=1;align=center;verticalAlign=top;childLayout=stackLayout;horizontal=1;startSize=26;horizontalStack=0;resizeParent=1;resizeParentMax=0;resizeLast=0;collapsible=1;marginBottom=0;whiteSpace=wrap;html=1;" parent="1" vertex="1">
          <mxGeometry x="2330" y="390" width="160" height="84" as="geometry" />
        </mxCell>
        <mxCell id="kYztOx51puu3Mf80ylwT-53" value="" style="line;strokeWidth=1;fillColor=none;align=left;verticalAlign=middle;spacingTop=-1;spacingLeft=3;spacingRight=3;rotatable=0;labelPosition=right;points=[];portConstraint=eastwest;strokeColor=inherit;" parent="kYztOx51puu3Mf80ylwT-51" vertex="1">
          <mxGeometry y="26" width="160" height="8" as="geometry" />
        </mxCell>
        <mxCell id="kYztOx51puu3Mf80ylwT-54" value="Spell(name: String, levelAttack : int)" style="text;strokeColor=none;fillColor=none;align=left;verticalAlign=top;spacingLeft=4;spacingRight=4;overflow=hidden;rotatable=0;points=[[0,0.5],[1,0.5]];portConstraint=eastwest;whiteSpace=wrap;html=1;" parent="kYztOx51puu3Mf80ylwT-51" vertex="1">
          <mxGeometry y="34" width="160" height="50" as="geometry" />
        </mxCell>
        <mxCell id="kYztOx51puu3Mf80ylwT-55" value="Weapon" style="swimlane;fontStyle=1;align=center;verticalAlign=top;childLayout=stackLayout;horizontal=1;startSize=26;horizontalStack=0;resizeParent=1;resizeParentMax=0;resizeLast=0;collapsible=1;marginBottom=0;whiteSpace=wrap;html=1;" parent="1" vertex="1">
          <mxGeometry x="2330" y="530" width="160" height="84" as="geometry" />
        </mxCell>
        <mxCell id="kYztOx51puu3Mf80ylwT-57" value="" style="line;strokeWidth=1;fillColor=none;align=left;verticalAlign=middle;spacingTop=-1;spacingLeft=3;spacingRight=3;rotatable=0;labelPosition=right;points=[];portConstraint=eastwest;strokeColor=inherit;" parent="kYztOx51puu3Mf80ylwT-55" vertex="1">
          <mxGeometry y="26" width="160" height="8" as="geometry" />
        </mxCell>
        <mxCell id="kYztOx51puu3Mf80ylwT-58" value="&lt;div style=&quot;text-align: center;&quot;&gt;&lt;span style=&quot;background-color: transparent; color: light-dark(rgb(0, 0, 0), rgb(255, 255, 255));&quot;&gt;&lt;b&gt;Weapon&amp;nbsp;&lt;/b&gt;(name: String, levelAttack : int)&lt;/span&gt;&lt;/div&gt;" style="text;strokeColor=none;fillColor=none;align=left;verticalAlign=top;spacingLeft=4;spacingRight=4;overflow=hidden;rotatable=0;points=[[0,0.5],[1,0.5]];portConstraint=eastwest;whiteSpace=wrap;html=1;" parent="kYztOx51puu3Mf80ylwT-55" vertex="1">
          <mxGeometry y="34" width="160" height="50" as="geometry" />
        </mxCell>
        <mxCell id="kYztOx51puu3Mf80ylwT-61" value="OutOfBoardException" style="swimlane;fontStyle=1;align=center;verticalAlign=top;childLayout=stackLayout;horizontal=1;startSize=26;horizontalStack=0;resizeParent=1;resizeParentMax=0;resizeLast=0;collapsible=1;marginBottom=0;whiteSpace=wrap;html=1;" parent="1" vertex="1">
          <mxGeometry x="2520" y="230" width="160" height="80" as="geometry" />
        </mxCell>
        <mxCell id="kYztOx51puu3Mf80ylwT-63" value="" style="line;strokeWidth=1;fillColor=none;align=left;verticalAlign=middle;spacingTop=-1;spacingLeft=3;spacingRight=3;rotatable=0;labelPosition=right;points=[];portConstraint=eastwest;strokeColor=inherit;" parent="kYztOx51puu3Mf80ylwT-61" vertex="1">
          <mxGeometry y="26" width="160" height="8" as="geometry" />
        </mxCell>
        <mxCell id="kYztOx51puu3Mf80ylwT-64" value="OutOfBoardException( message : String)" style="text;strokeColor=none;fillColor=none;align=left;verticalAlign=top;spacingLeft=4;spacingRight=4;overflow=hidden;rotatable=0;points=[[0,0.5],[1,0.5]];portConstraint=eastwest;whiteSpace=wrap;html=1;" parent="kYztOx51puu3Mf80ylwT-61" vertex="1">
          <mxGeometry y="34" width="160" height="46" as="geometry" />
        </mxCell>
        <mxCell id="kYztOx51puu3Mf80ylwT-66" value="Menu" style="swimlane;fontStyle=1;align=center;verticalAlign=top;childLayout=stackLayout;horizontal=1;startSize=26;horizontalStack=0;resizeParent=1;resizeParentMax=0;resizeLast=0;collapsible=1;marginBottom=0;whiteSpace=wrap;html=1;" parent="1" vertex="1">
          <mxGeometry x="935" y="1135" width="630" height="310" as="geometry" />
        </mxCell>
        <mxCell id="kYztOx51puu3Mf80ylwT-67" value="toolsMain : Tools&lt;div&gt;clavier : Scanner&lt;/div&gt;" style="text;strokeColor=none;fillColor=none;align=left;verticalAlign=top;spacingLeft=4;spacingRight=4;overflow=hidden;rotatable=0;points=[[0,0.5],[1,0.5]];portConstraint=eastwest;whiteSpace=wrap;html=1;" parent="kYztOx51puu3Mf80ylwT-66" vertex="1">
          <mxGeometry y="26" width="630" height="34" as="geometry" />
        </mxCell>
        <mxCell id="kYztOx51puu3Mf80ylwT-68" value="" style="line;strokeWidth=1;fillColor=none;align=left;verticalAlign=middle;spacingTop=-1;spacingLeft=3;spacingRight=3;rotatable=0;labelPosition=right;points=[];portConstraint=eastwest;strokeColor=inherit;" parent="kYztOx51puu3Mf80ylwT-66" vertex="1">
          <mxGeometry y="60" width="630" height="8" as="geometry" />
        </mxCell>
        <mxCell id="kYztOx51puu3Mf80ylwT-69" value="&lt;div&gt;startMenu(user : User) : void&lt;/div&gt;creationPlayerMenu(user : User, connection : Connection , database: Database) : void&lt;div&gt;afterCreationPlayerMenu(user : User, menu : Menu, connection : Connection, database : Database) : boolean&lt;/div&gt;&lt;div&gt;choiceGameProgress(boardClass : Board, user : User, game : Game) : void&lt;/div&gt;&lt;div&gt;endGameCase() : void&lt;/div&gt;&lt;div&gt;enemiesCell(boardClass : Board, menu : Menu, user : User, game : Game, boardInt : int[], caseNumber : int) : void&lt;/div&gt;&lt;div&gt;boxCell(boardClass : Board, user : User, game : Game) : void&lt;/div&gt;&lt;div&gt;displayInformationCharacter(user : User) : void&lt;/div&gt;&lt;div&gt;displayModifyInformationCharacter(user : User, database : Database, connection : Connection) : void&lt;/div&gt;&lt;div&gt;displayEnemyFight(enemies : Enemie) : void&lt;/div&gt;&lt;div&gt;displayAdminGetHeros(database: Database, connection : Connection) : void&lt;/div&gt;&lt;div&gt;displayFIghtPlayerAttack() :void&lt;/div&gt;&lt;div&gt;displayFightEnemyAttack() :void&lt;/div&gt;&lt;div&gt;endGameDead() :void&lt;/div&gt;&lt;div&gt;displayEscape() :void&lt;/div&gt;" style="text;strokeColor=none;fillColor=none;align=left;verticalAlign=top;spacingLeft=4;spacingRight=4;overflow=hidden;rotatable=0;points=[[0,0.5],[1,0.5]];portConstraint=eastwest;whiteSpace=wrap;html=1;" parent="kYztOx51puu3Mf80ylwT-66" vertex="1">
          <mxGeometry y="68" width="630" height="242" as="geometry" />
        </mxCell>
        <mxCell id="kYztOx51puu3Mf80ylwT-74" value="User" style="swimlane;fontStyle=1;align=center;verticalAlign=top;childLayout=stackLayout;horizontal=1;startSize=26;horizontalStack=0;resizeParent=1;resizeParentMax=0;resizeLast=0;collapsible=1;marginBottom=0;whiteSpace=wrap;html=1;" parent="1" vertex="1">
          <mxGeometry x="1600" y="1135" width="450" height="210" as="geometry" />
        </mxCell>
        <mxCell id="kYztOx51puu3Mf80ylwT-75" value="&lt;div&gt;name :&amp;nbsp;&lt;span style=&quot;background-color: transparent; color: light-dark(rgb(0, 0, 0), rgb(255, 255, 255));&quot;&gt;String&lt;/span&gt;&lt;/div&gt;&lt;div&gt;typeChoice:&amp;nbsp;&lt;span style=&quot;background-color: transparent; color: light-dark(rgb(0, 0, 0), rgb(255, 255, 255));&quot;&gt;String&lt;/span&gt;&lt;/div&gt;&lt;div&gt;&lt;span style=&quot;background-color: transparent; color: light-dark(rgb(0, 0, 0), rgb(255, 255, 255));&quot;&gt;IDPlayerDatabase : int&lt;/span&gt;&lt;/div&gt;&lt;div&gt;&lt;span style=&quot;background-color: transparent; color: light-dark(rgb(0, 0, 0), rgb(255, 255, 255));&quot;&gt;characterPlayer :&amp;nbsp;&lt;/span&gt;&lt;span style=&quot;background-color: transparent;&quot;&gt;Character&lt;/span&gt;&lt;/div&gt;" style="text;strokeColor=none;fillColor=none;align=left;verticalAlign=top;spacingLeft=4;spacingRight=4;overflow=hidden;rotatable=0;points=[[0,0.5],[1,0.5]];portConstraint=eastwest;whiteSpace=wrap;html=1;" parent="kYztOx51puu3Mf80ylwT-74" vertex="1">
          <mxGeometry y="26" width="450" height="64" as="geometry" />
        </mxCell>
        <mxCell id="kYztOx51puu3Mf80ylwT-76" value="" style="line;strokeWidth=1;fillColor=none;align=left;verticalAlign=middle;spacingTop=-1;spacingLeft=3;spacingRight=3;rotatable=0;labelPosition=right;points=[];portConstraint=eastwest;strokeColor=inherit;" parent="kYztOx51puu3Mf80ylwT-74" vertex="1">
          <mxGeometry y="90" width="450" height="8" as="geometry" />
        </mxCell>
        <mxCell id="kYztOx51puu3Mf80ylwT-77" value="setName(name : String) : void&lt;div&gt;getName() : string&lt;/div&gt;&lt;div&gt;createCharacter(user : User, connection : Connection, database : Database) : void&lt;/div&gt;&lt;div&gt;setTypeChoice(typeChoise : String) : void&lt;/div&gt;&lt;div&gt;getIDPlayerDatabase() : int&lt;/div&gt;&lt;div&gt;setIDPlayerDatabase(IDPlayerDatabase : int) : void&lt;/div&gt;" style="text;strokeColor=none;fillColor=none;align=left;verticalAlign=top;spacingLeft=4;spacingRight=4;overflow=hidden;rotatable=0;points=[[0,0.5],[1,0.5]];portConstraint=eastwest;whiteSpace=wrap;html=1;" parent="kYztOx51puu3Mf80ylwT-74" vertex="1">
          <mxGeometry y="98" width="450" height="112" as="geometry" />
        </mxCell>
        <mxCell id="kYztOx51puu3Mf80ylwT-81" value="Tools" style="swimlane;fontStyle=1;align=center;verticalAlign=top;childLayout=stackLayout;horizontal=1;startSize=26;horizontalStack=0;resizeParent=1;resizeParentMax=0;resizeLast=0;collapsible=1;marginBottom=0;whiteSpace=wrap;html=1;" parent="1" vertex="1">
          <mxGeometry x="2090" y="1710" width="430" height="170" as="geometry" />
        </mxCell>
        <mxCell id="kYztOx51puu3Mf80ylwT-82" value="" style="line;strokeWidth=1;fillColor=none;align=left;verticalAlign=middle;spacingTop=-1;spacingLeft=3;spacingRight=3;rotatable=0;labelPosition=right;points=[];portConstraint=eastwest;strokeColor=inherit;" parent="kYztOx51puu3Mf80ylwT-81" vertex="1">
          <mxGeometry y="26" width="430" height="8" as="geometry" />
        </mxCell>
        <mxCell id="kYztOx51puu3Mf80ylwT-83" value="itIsInt(s : String, fatal : boolean) : int&lt;div&gt;itIsString(s: String, fatal : boolean) : String&lt;/div&gt;&lt;div&gt;maintenance(type:String) : void&lt;/div&gt;&lt;div&gt;displayAArrayInt(array : int[]) : void&lt;/div&gt;&lt;div&gt;clearLine() : void&lt;/div&gt;&lt;div&gt;verificationChoiceWhile(condition : boolean, type: boolean, menu : Menu, function : String) : void&lt;/div&gt;&lt;div&gt;verificationChoiceNotWhile(function : String,&amp;nbsp;&lt;span style=&quot;background-color: transparent; color: light-dark(rgb(0, 0, 0), rgb(255, 255, 255));&quot;&gt;menu : Menu, args : Object...&lt;/span&gt;&lt;span style=&quot;background-color: transparent; color: light-dark(rgb(0, 0, 0), rgb(255, 255, 255));&quot;&gt;) : void&lt;/span&gt;&lt;/div&gt;" style="text;strokeColor=none;fillColor=none;align=left;verticalAlign=top;spacingLeft=4;spacingRight=4;overflow=hidden;rotatable=0;points=[[0,0.5],[1,0.5]];portConstraint=eastwest;whiteSpace=wrap;html=1;" parent="kYztOx51puu3Mf80ylwT-81" vertex="1">
          <mxGeometry y="34" width="430" height="136" as="geometry" />
        </mxCell>
        <mxCell id="kYztOx51puu3Mf80ylwT-100" style="edgeStyle=orthogonalEdgeStyle;rounded=0;orthogonalLoop=1;jettySize=auto;html=1;entryX=0.5;entryY=0;entryDx=0;entryDy=0;" parent="1" source="kYztOx51puu3Mf80ylwT-88" target="kYztOx51puu3Mf80ylwT-81" edge="1">
          <mxGeometry relative="1" as="geometry" />
        </mxCell>
        <mxCell id="kYztOx51puu3Mf80ylwT-88" value="Tools" style="shape=folder;fontStyle=1;spacingTop=10;tabWidth=40;tabHeight=14;tabPosition=left;html=1;whiteSpace=wrap;" parent="1" vertex="1">
          <mxGeometry x="2255" y="1610" width="100" height="50" as="geometry" />
        </mxCell>
        <mxCell id="pagqS9b1QipSSQt8SLFa-6" value="Admin" style="swimlane;fontStyle=1;align=center;verticalAlign=top;childLayout=stackLayout;horizontal=1;startSize=26;horizontalStack=0;resizeParent=1;resizeParentMax=0;resizeLast=0;collapsible=1;marginBottom=0;whiteSpace=wrap;html=1;" parent="1" vertex="1">
          <mxGeometry x="1100" y="140" width="190" height="500" as="geometry" />
        </mxCell>
        <mxCell id="pagqS9b1QipSSQt8SLFa-7" value="&lt;div&gt;debugLifeHealth : boolean&lt;/div&gt;&lt;div&gt;debugMoney : boolean&lt;/div&gt;&lt;div&gt;debugLifeTimeWeapon : int&lt;/div&gt;&lt;div&gt;debugViewHeroMenu : boolean&lt;/div&gt;&lt;div&gt;debugBoard : boolean&lt;/div&gt;&lt;div&gt;valueDebugBoard : int&lt;/div&gt;&lt;div&gt;debugBoardDisplay : boolean&lt;/div&gt;&lt;div&gt;debugBoardIndexCell : boolean&lt;/div&gt;&lt;div&gt;debugDice : boolean&lt;/div&gt;&lt;div&gt;&lt;div&gt;valueDebugDice : int&lt;/div&gt;&lt;div&gt;&lt;div&gt;debugDiceCriticalLoose : boolean&lt;/div&gt;&lt;div&gt;&lt;div&gt;debugDiceCriticalSuccess : boolean&lt;/div&gt;&lt;div&gt;&lt;span style=&quot;background-color: transparent; color: light-dark(rgb(0, 0, 0), rgb(255, 255, 255));&quot;&gt;usingDatabase : boolean&lt;/span&gt;&lt;/div&gt;&lt;/div&gt;&lt;/div&gt;&lt;/div&gt;&lt;div&gt;debugEnemiesCell : boolean&lt;/div&gt;&lt;div&gt;ennemisCell : int[]&lt;/div&gt;&lt;div&gt;enemyValue : int[]&lt;/div&gt;&lt;div&gt;boxCell : int[]&lt;/div&gt;&lt;div&gt;boxValue : int[]&lt;/div&gt;&lt;div&gt;merchantsCell : int[]&lt;/div&gt;&lt;div&gt;merchantsValue : int[]&lt;/div&gt;&lt;div&gt;&lt;div&gt;hostelCell : int[]&lt;/div&gt;&lt;div&gt;hostelValue : int[]&lt;/div&gt;&lt;/div&gt;&lt;div&gt;&lt;div&gt;blacksmithCell : int[]&lt;/div&gt;&lt;div&gt;blacksmithValue : int[]&lt;/div&gt;&lt;/div&gt;&lt;div&gt;levelDifficulty : int[]&lt;/div&gt;&lt;div&gt;caseEnd : int&lt;/div&gt;&lt;div&gt;valueCaseEnd : int&lt;/div&gt;&lt;div&gt;valuePlayer : int&lt;/div&gt;&lt;div&gt;caseStart : int&lt;br&gt;&lt;/div&gt;&lt;div&gt;debugForceBox : int&lt;/div&gt;&lt;div&gt;priceHostel : int&lt;/div&gt;" style="text;strokeColor=none;fillColor=none;align=left;verticalAlign=top;spacingLeft=4;spacingRight=4;overflow=hidden;rotatable=0;points=[[0,0.5],[1,0.5]];portConstraint=eastwest;whiteSpace=wrap;html=1;" parent="pagqS9b1QipSSQt8SLFa-6" vertex="1">
          <mxGeometry y="26" width="190" height="474" as="geometry" />
        </mxCell>
        <mxCell id="pagqS9b1QipSSQt8SLFa-10" value="Database" style="swimlane;fontStyle=1;align=center;verticalAlign=top;childLayout=stackLayout;horizontal=1;startSize=26;horizontalStack=0;resizeParent=1;resizeParentMax=0;resizeLast=0;collapsible=1;marginBottom=0;whiteSpace=wrap;html=1;" parent="1" vertex="1">
          <mxGeometry x="1310" y="140" width="380" height="280" as="geometry" />
        </mxCell>
        <mxCell id="pagqS9b1QipSSQt8SLFa-11" value="connectDatabase()&lt;div&gt;getHeroes(connection : Connection) : void&lt;/div&gt;&lt;div&gt;createHero(connection : Connection, user : User) : void&lt;/div&gt;&lt;div&gt;editHero(connection : Connection, oldName : String, newName : String ,user : User) : void&lt;/div&gt;&lt;div&gt;changeLifePoints(connection : Connection, user : User, lifePoints : int) : void&lt;/div&gt;&lt;div&gt;createHero(connection : Connection, user : User, database : Database) : void&lt;/div&gt;&lt;div&gt;addBoard(connection : Connection,&lt;span style=&quot;background-color: transparent; color: light-dark(rgb(0, 0, 0), rgb(255, 255, 255));&quot;&gt;&amp;nbsp;boardClass : Bloard,&lt;/span&gt;&lt;span style=&quot;background-color: transparent; color: light-dark(rgb(0, 0, 0), rgb(255, 255, 255));&quot;&gt;&amp;nbsp;user : User) : void&lt;/span&gt;&lt;/div&gt;&lt;div&gt;&lt;span style=&quot;background-color: transparent; color: light-dark(rgb(0, 0, 0), rgb(255, 255, 255));&quot;&gt;updateBoard(connection : Connection, boardInt : int[], user : User) : void&lt;/span&gt;&lt;/div&gt;&lt;div&gt;&lt;span style=&quot;background-color: transparent; color: light-dark(rgb(0, 0, 0), rgb(255, 255, 255));&quot;&gt;addDefensiveEquipment(connection : Connection, user : User, defensiveEquipment : D&lt;/span&gt;&lt;span style=&quot;background-color: transparent; color: light-dark(rgb(0, 0, 0), rgb(255, 255, 255));&quot;&gt;efensiveEquipment) : void&lt;/span&gt;&lt;/div&gt;&lt;div&gt;addOffensiveEquipment(connection : Connection, user : User, offensiveEquipment : OffensiveEquipment) : void&lt;/div&gt;" style="text;strokeColor=none;fillColor=none;align=left;verticalAlign=top;spacingLeft=4;spacingRight=4;overflow=hidden;rotatable=0;points=[[0,0.5],[1,0.5]];portConstraint=eastwest;whiteSpace=wrap;html=1;" parent="pagqS9b1QipSSQt8SLFa-10" vertex="1">
          <mxGeometry y="26" width="380" height="254" as="geometry" />
        </mxCell>
        <mxCell id="pagqS9b1QipSSQt8SLFa-16" style="edgeStyle=orthogonalEdgeStyle;rounded=0;orthogonalLoop=1;jettySize=auto;html=1;entryX=0;entryY=0.923;entryDx=0;entryDy=0;entryPerimeter=0;exitX=0.021;exitY=0.996;exitDx=0;exitDy=0;exitPerimeter=0;" parent="1" source="kYztOx51puu3Mf80ylwT-18" edge="1">
          <mxGeometry relative="1" as="geometry">
            <mxPoint x="1770" y="429.99800000000005" as="targetPoint" />
            <Array as="points">
              <mxPoint x="1724" y="353" />
              <mxPoint x="1724" y="353" />
              <mxPoint x="1724" y="430" />
            </Array>
          </mxGeometry>
        </mxCell>
        <mxCell id="pagqS9b1QipSSQt8SLFa-17" style="edgeStyle=orthogonalEdgeStyle;rounded=0;orthogonalLoop=1;jettySize=auto;html=1;entryX=-0.004;entryY=0.041;entryDx=0;entryDy=0;entryPerimeter=0;exitX=0.041;exitY=1.004;exitDx=0;exitDy=0;exitPerimeter=0;" parent="1" source="kYztOx51puu3Mf80ylwT-18" target="kYztOx51puu3Mf80ylwT-41" edge="1">
          <mxGeometry relative="1" as="geometry">
            <mxPoint x="1728.72" y="345" as="sourcePoint" />
            <mxPoint x="1770" y="523.36" as="targetPoint" />
            <Array as="points">
              <mxPoint x="1729" y="525" />
              <mxPoint x="1760" y="525" />
              <mxPoint x="1760" y="523" />
            </Array>
          </mxGeometry>
        </mxCell>
        <mxCell id="pagqS9b1QipSSQt8SLFa-23" style="edgeStyle=orthogonalEdgeStyle;rounded=0;orthogonalLoop=1;jettySize=auto;html=1;entryX=1;entryY=0.25;entryDx=0;entryDy=0;" parent="1" source="pagqS9b1QipSSQt8SLFa-20" target="kYztOx51puu3Mf80ylwT-41" edge="1">
          <mxGeometry relative="1" as="geometry" />
        </mxCell>
        <mxCell id="pagqS9b1QipSSQt8SLFa-24" style="edgeStyle=orthogonalEdgeStyle;rounded=0;orthogonalLoop=1;jettySize=auto;html=1;entryX=0;entryY=0.25;entryDx=0;entryDy=0;" parent="1" source="pagqS9b1QipSSQt8SLFa-20" target="kYztOx51puu3Mf80ylwT-55" edge="1">
          <mxGeometry relative="1" as="geometry" />
        </mxCell>
        <mxCell id="pagqS9b1QipSSQt8SLFa-20" value="equipments" style="shape=folder;fontStyle=1;spacingTop=10;tabWidth=40;tabHeight=14;tabPosition=left;html=1;whiteSpace=wrap;" parent="1" vertex="1">
          <mxGeometry x="2060" y="140" width="90" height="50" as="geometry" />
        </mxCell>
        <mxCell id="pagqS9b1QipSSQt8SLFa-21" style="edgeStyle=orthogonalEdgeStyle;rounded=0;orthogonalLoop=1;jettySize=auto;html=1;entryX=1.007;entryY=0.32;entryDx=0;entryDy=0;entryPerimeter=0;" parent="1" source="pagqS9b1QipSSQt8SLFa-20" target="kYztOx51puu3Mf80ylwT-48" edge="1">
          <mxGeometry relative="1" as="geometry" />
        </mxCell>
        <mxCell id="pagqS9b1QipSSQt8SLFa-22" style="edgeStyle=orthogonalEdgeStyle;rounded=0;orthogonalLoop=1;jettySize=auto;html=1;entryX=-0.019;entryY=0.17;entryDx=0;entryDy=0;entryPerimeter=0;" parent="1" source="pagqS9b1QipSSQt8SLFa-20" target="kYztOx51puu3Mf80ylwT-54" edge="1">
          <mxGeometry relative="1" as="geometry" />
        </mxCell>
        <mxCell id="pagqS9b1QipSSQt8SLFa-25" style="edgeStyle=orthogonalEdgeStyle;rounded=0;orthogonalLoop=1;jettySize=auto;html=1;" parent="1" source="kYztOx51puu3Mf80ylwT-19" edge="1">
          <mxGeometry relative="1" as="geometry">
            <mxPoint x="2330" y="410" as="targetPoint" />
            <Array as="points">
              <mxPoint x="2310" y="410" />
              <mxPoint x="2330" y="410" />
            </Array>
          </mxGeometry>
        </mxCell>
        <mxCell id="pagqS9b1QipSSQt8SLFa-28" style="edgeStyle=orthogonalEdgeStyle;rounded=0;orthogonalLoop=1;jettySize=auto;html=1;entryX=0.5;entryY=0;entryDx=0;entryDy=0;" parent="1" source="pagqS9b1QipSSQt8SLFa-27" target="kYztOx51puu3Mf80ylwT-61" edge="1">
          <mxGeometry relative="1" as="geometry" />
        </mxCell>
        <mxCell id="pagqS9b1QipSSQt8SLFa-27" value="exceptions" style="shape=folder;fontStyle=1;spacingTop=10;tabWidth=40;tabHeight=14;tabPosition=left;html=1;whiteSpace=wrap;" parent="1" vertex="1">
          <mxGeometry x="2555" y="140" width="90" height="50" as="geometry" />
        </mxCell>
        <mxCell id="pagqS9b1QipSSQt8SLFa-30" value="Enemie" style="swimlane;fontStyle=1;align=center;verticalAlign=top;childLayout=stackLayout;horizontal=1;startSize=26;horizontalStack=0;resizeParent=1;resizeParentMax=0;resizeLast=0;collapsible=1;marginBottom=0;whiteSpace=wrap;html=1;" parent="1" vertex="1">
          <mxGeometry x="2710" y="140" width="230" height="230" as="geometry" />
        </mxCell>
        <mxCell id="pagqS9b1QipSSQt8SLFa-31" value="&lt;div&gt;name :&amp;nbsp;&lt;span style=&quot;background-color: transparent; color: light-dark(rgb(0, 0, 0), rgb(255, 255, 255));&quot;&gt;String&lt;/span&gt;&lt;/div&gt;&lt;div&gt;&lt;span style=&quot;background-color: transparent; color: light-dark(rgb(0, 0, 0), rgb(255, 255, 255));&quot;&gt;ID: int&lt;/span&gt;&lt;/div&gt;&lt;div&gt;&lt;span style=&quot;background-color: transparent;&quot;&gt;levelAttack&lt;/span&gt;&lt;span style=&quot;background-color: transparent; color: light-dark(rgb(0, 0, 0), rgb(255, 255, 255));&quot;&gt;&amp;nbsp;:&amp;nbsp;&lt;/span&gt;&lt;span style=&quot;background-color: transparent; color: light-dark(rgb(0, 0, 0), rgb(255, 255, 255));&quot;&gt;int&lt;/span&gt;&lt;/div&gt;&lt;div&gt;lifePoints : int&lt;span style=&quot;background-color: transparent; color: light-dark(rgb(0, 0, 0), rgb(255, 255, 255));&quot;&gt;&lt;/span&gt;&lt;/div&gt;" style="text;strokeColor=none;fillColor=none;align=left;verticalAlign=top;spacingLeft=4;spacingRight=4;overflow=hidden;rotatable=0;points=[[0,0.5],[1,0.5]];portConstraint=eastwest;whiteSpace=wrap;html=1;" parent="pagqS9b1QipSSQt8SLFa-30" vertex="1">
          <mxGeometry y="26" width="230" height="64" as="geometry" />
        </mxCell>
        <mxCell id="pagqS9b1QipSSQt8SLFa-32" value="" style="line;strokeWidth=1;fillColor=none;align=left;verticalAlign=middle;spacingTop=-1;spacingLeft=3;spacingRight=3;rotatable=0;labelPosition=right;points=[];portConstraint=eastwest;strokeColor=inherit;" parent="pagqS9b1QipSSQt8SLFa-30" vertex="1">
          <mxGeometry y="90" width="230" height="8" as="geometry" />
        </mxCell>
        <mxCell id="pagqS9b1QipSSQt8SLFa-33" value="&lt;div&gt;Enemi()&lt;/div&gt;&lt;div&gt;getName() : String&lt;/div&gt;&lt;div&gt;setName(name : String) : void&lt;/div&gt;&lt;div&gt;getLifePoints() : int&lt;br&gt;setLifePoints(lifePoints : int) : void&lt;/div&gt;&lt;div&gt;getAttackLevel()&lt;span style=&quot;background-color: transparent; color: light-dark(rgb(0, 0, 0), rgb(255, 255, 255));&quot;&gt;: int&lt;/span&gt;&lt;/div&gt;&lt;div&gt;&lt;span style=&quot;background-color: transparent; color: light-dark(rgb(0, 0, 0), rgb(255, 255, 255));&quot;&gt;setAttackLevel(attackLevel : int): void&lt;/span&gt;&lt;/div&gt;&lt;div&gt;toString() : String&lt;/div&gt;" style="text;strokeColor=none;fillColor=none;align=left;verticalAlign=top;spacingLeft=4;spacingRight=4;overflow=hidden;rotatable=0;points=[[0,0.5],[1,0.5]];portConstraint=eastwest;whiteSpace=wrap;html=1;" parent="pagqS9b1QipSSQt8SLFa-30" vertex="1">
          <mxGeometry y="98" width="230" height="132" as="geometry" />
        </mxCell>
        <mxCell id="pagqS9b1QipSSQt8SLFa-34" value="Wizard" style="swimlane;fontStyle=1;align=center;verticalAlign=top;childLayout=stackLayout;horizontal=1;startSize=26;horizontalStack=0;resizeParent=1;resizeParentMax=0;resizeLast=0;collapsible=1;marginBottom=0;whiteSpace=wrap;html=1;" parent="1" vertex="1">
          <mxGeometry x="3070" y="220" width="140" height="70" as="geometry" />
        </mxCell>
        <mxCell id="pagqS9b1QipSSQt8SLFa-35" value="" style="line;strokeWidth=1;fillColor=none;align=left;verticalAlign=middle;spacingTop=-1;spacingLeft=3;spacingRight=3;rotatable=0;labelPosition=right;points=[];portConstraint=eastwest;strokeColor=inherit;" parent="pagqS9b1QipSSQt8SLFa-34" vertex="1">
          <mxGeometry y="26" width="140" height="10" as="geometry" />
        </mxCell>
        <mxCell id="pagqS9b1QipSSQt8SLFa-36" value="&lt;div&gt;&lt;span style=&quot;background-color: transparent; color: light-dark(rgb(0, 0, 0), rgb(255, 255, 255));&quot;&gt;Wizard()&amp;nbsp;&lt;/span&gt;&lt;/div&gt;" style="text;strokeColor=none;fillColor=none;align=left;verticalAlign=top;spacingLeft=4;spacingRight=4;overflow=hidden;rotatable=0;points=[[0,0.5],[1,0.5]];portConstraint=eastwest;whiteSpace=wrap;html=1;" parent="pagqS9b1QipSSQt8SLFa-34" vertex="1">
          <mxGeometry y="36" width="140" height="34" as="geometry" />
        </mxCell>
        <mxCell id="pagqS9b1QipSSQt8SLFa-44" style="edgeStyle=orthogonalEdgeStyle;rounded=0;orthogonalLoop=1;jettySize=auto;html=1;entryX=0;entryY=0.5;entryDx=0;entryDy=0;" parent="1" source="pagqS9b1QipSSQt8SLFa-37" target="pagqS9b1QipSSQt8SLFa-34" edge="1">
          <mxGeometry relative="1" as="geometry">
            <Array as="points">
              <mxPoint x="3050" y="255" />
            </Array>
          </mxGeometry>
        </mxCell>
        <mxCell id="pagqS9b1QipSSQt8SLFa-45" style="edgeStyle=orthogonalEdgeStyle;rounded=0;orthogonalLoop=1;jettySize=auto;html=1;entryX=0;entryY=0.25;entryDx=0;entryDy=0;exitX=0.25;exitY=1;exitDx=0;exitDy=0;exitPerimeter=0;" parent="1" source="pagqS9b1QipSSQt8SLFa-37" target="pagqS9b1QipSSQt8SLFa-38" edge="1">
          <mxGeometry relative="1" as="geometry">
            <Array as="points">
              <mxPoint x="3050" y="190" />
              <mxPoint x="3050" y="328" />
            </Array>
          </mxGeometry>
        </mxCell>
        <mxCell id="pagqS9b1QipSSQt8SLFa-37" value="enemies" style="shape=folder;fontStyle=1;spacingTop=10;tabWidth=40;tabHeight=14;tabPosition=left;html=1;whiteSpace=wrap;" parent="1" vertex="1">
          <mxGeometry x="3030" y="140" width="90" height="50" as="geometry" />
        </mxCell>
        <mxCell id="pagqS9b1QipSSQt8SLFa-38" value="Goblin" style="swimlane;fontStyle=1;align=center;verticalAlign=top;childLayout=stackLayout;horizontal=1;startSize=26;horizontalStack=0;resizeParent=1;resizeParentMax=0;resizeLast=0;collapsible=1;marginBottom=0;whiteSpace=wrap;html=1;" parent="1" vertex="1">
          <mxGeometry x="3070" y="310" width="140" height="70" as="geometry" />
        </mxCell>
        <mxCell id="pagqS9b1QipSSQt8SLFa-39" value="" style="line;strokeWidth=1;fillColor=none;align=left;verticalAlign=middle;spacingTop=-1;spacingLeft=3;spacingRight=3;rotatable=0;labelPosition=right;points=[];portConstraint=eastwest;strokeColor=inherit;" parent="pagqS9b1QipSSQt8SLFa-38" vertex="1">
          <mxGeometry y="26" width="140" height="10" as="geometry" />
        </mxCell>
        <mxCell id="pagqS9b1QipSSQt8SLFa-40" value="Goblin()" style="text;strokeColor=none;fillColor=none;align=left;verticalAlign=top;spacingLeft=4;spacingRight=4;overflow=hidden;rotatable=0;points=[[0,0.5],[1,0.5]];portConstraint=eastwest;whiteSpace=wrap;html=1;" parent="pagqS9b1QipSSQt8SLFa-38" vertex="1">
          <mxGeometry y="36" width="140" height="34" as="geometry" />
        </mxCell>
        <mxCell id="pagqS9b1QipSSQt8SLFa-41" value="Dragon" style="swimlane;fontStyle=1;align=center;verticalAlign=top;childLayout=stackLayout;horizontal=1;startSize=26;horizontalStack=0;resizeParent=1;resizeParentMax=0;resizeLast=0;collapsible=1;marginBottom=0;whiteSpace=wrap;html=1;" parent="1" vertex="1">
          <mxGeometry x="3070" y="404" width="140" height="70" as="geometry" />
        </mxCell>
        <mxCell id="pagqS9b1QipSSQt8SLFa-42" value="" style="line;strokeWidth=1;fillColor=none;align=left;verticalAlign=middle;spacingTop=-1;spacingLeft=3;spacingRight=3;rotatable=0;labelPosition=right;points=[];portConstraint=eastwest;strokeColor=inherit;" parent="pagqS9b1QipSSQt8SLFa-41" vertex="1">
          <mxGeometry y="26" width="140" height="10" as="geometry" />
        </mxCell>
        <mxCell id="pagqS9b1QipSSQt8SLFa-43" value="Dragon()" style="text;strokeColor=none;fillColor=none;align=left;verticalAlign=top;spacingLeft=4;spacingRight=4;overflow=hidden;rotatable=0;points=[[0,0.5],[1,0.5]];portConstraint=eastwest;whiteSpace=wrap;html=1;" parent="pagqS9b1QipSSQt8SLFa-41" vertex="1">
          <mxGeometry y="36" width="140" height="34" as="geometry" />
        </mxCell>
        <mxCell id="pagqS9b1QipSSQt8SLFa-46" style="edgeStyle=orthogonalEdgeStyle;rounded=0;orthogonalLoop=1;jettySize=auto;html=1;entryX=0;entryY=0.25;entryDx=0;entryDy=0;" parent="1" edge="1">
          <mxGeometry relative="1" as="geometry">
            <mxPoint x="3050" y="310" as="sourcePoint" />
            <mxPoint x="3070" y="448" as="targetPoint" />
            <Array as="points">
              <mxPoint x="3050" y="310" />
              <mxPoint x="3050" y="448" />
            </Array>
          </mxGeometry>
        </mxCell>
        <mxCell id="pagqS9b1QipSSQt8SLFa-47" style="edgeStyle=orthogonalEdgeStyle;rounded=0;orthogonalLoop=1;jettySize=auto;html=1;entryX=-0.017;entryY=0.332;entryDx=0;entryDy=0;entryPerimeter=0;" parent="1" source="pagqS9b1QipSSQt8SLFa-33" target="pagqS9b1QipSSQt8SLFa-34" edge="1">
          <mxGeometry relative="1" as="geometry">
            <mxPoint x="3050" y="304" as="targetPoint" />
          </mxGeometry>
        </mxCell>
        <mxCell id="pagqS9b1QipSSQt8SLFa-49" style="edgeStyle=orthogonalEdgeStyle;rounded=0;orthogonalLoop=1;jettySize=auto;html=1;" parent="1" source="pagqS9b1QipSSQt8SLFa-33" target="pagqS9b1QipSSQt8SLFa-39" edge="1">
          <mxGeometry relative="1" as="geometry" />
        </mxCell>
        <mxCell id="pagqS9b1QipSSQt8SLFa-50" style="edgeStyle=orthogonalEdgeStyle;rounded=0;orthogonalLoop=1;jettySize=auto;html=1;entryX=0;entryY=0.5;entryDx=0;entryDy=0;" parent="1" source="pagqS9b1QipSSQt8SLFa-33" target="pagqS9b1QipSSQt8SLFa-41" edge="1">
          <mxGeometry relative="1" as="geometry" />
        </mxCell>
        <mxCell id="pagqS9b1QipSSQt8SLFa-71" style="edgeStyle=orthogonalEdgeStyle;rounded=0;orthogonalLoop=1;jettySize=auto;html=1;entryX=0.5;entryY=0;entryDx=0;entryDy=0;" parent="1" source="pagqS9b1QipSSQt8SLFa-52" target="pagqS9b1QipSSQt8SLFa-53" edge="1">
          <mxGeometry relative="1" as="geometry" />
        </mxCell>
        <mxCell id="pagqS9b1QipSSQt8SLFa-72" style="edgeStyle=orthogonalEdgeStyle;rounded=0;orthogonalLoop=1;jettySize=auto;html=1;entryX=0.5;entryY=0;entryDx=0;entryDy=0;" parent="1" source="pagqS9b1QipSSQt8SLFa-52" target="pagqS9b1QipSSQt8SLFa-59" edge="1">
          <mxGeometry relative="1" as="geometry" />
        </mxCell>
        <mxCell id="pagqS9b1QipSSQt8SLFa-73" style="edgeStyle=orthogonalEdgeStyle;rounded=0;orthogonalLoop=1;jettySize=auto;html=1;entryX=0.5;entryY=0;entryDx=0;entryDy=0;" parent="1" source="pagqS9b1QipSSQt8SLFa-52" target="pagqS9b1QipSSQt8SLFa-65" edge="1">
          <mxGeometry relative="1" as="geometry" />
        </mxCell>
        <mxCell id="pagqS9b1QipSSQt8SLFa-75" style="edgeStyle=orthogonalEdgeStyle;rounded=0;orthogonalLoop=1;jettySize=auto;html=1;entryX=0;entryY=0;entryDx=0;entryDy=0;" parent="1" source="pagqS9b1QipSSQt8SLFa-52" target="pagqS9b1QipSSQt8SLFa-62" edge="1">
          <mxGeometry relative="1" as="geometry">
            <Array as="points">
              <mxPoint x="1990" y="675" />
              <mxPoint x="1990" y="860" />
            </Array>
          </mxGeometry>
        </mxCell>
        <mxCell id="pagqS9b1QipSSQt8SLFa-76" style="edgeStyle=orthogonalEdgeStyle;rounded=0;orthogonalLoop=1;jettySize=auto;html=1;entryX=1;entryY=0.25;entryDx=0;entryDy=0;" parent="1" source="pagqS9b1QipSSQt8SLFa-52" target="pagqS9b1QipSSQt8SLFa-56" edge="1">
          <mxGeometry relative="1" as="geometry">
            <Array as="points">
              <mxPoint x="1990" y="675" />
              <mxPoint x="1990" y="881" />
            </Array>
          </mxGeometry>
        </mxCell>
        <mxCell id="pagqS9b1QipSSQt8SLFa-52" value="objects" style="shape=folder;fontStyle=1;spacingTop=10;tabWidth=40;tabHeight=14;tabPosition=left;html=1;whiteSpace=wrap;" parent="1" vertex="1">
          <mxGeometry x="2060" y="650" width="90" height="50" as="geometry" />
        </mxCell>
        <mxCell id="pagqS9b1QipSSQt8SLFa-53" value="BigPotion" style="swimlane;fontStyle=1;align=center;verticalAlign=top;childLayout=stackLayout;horizontal=1;startSize=26;horizontalStack=0;resizeParent=1;resizeParentMax=0;resizeLast=0;collapsible=1;marginBottom=0;whiteSpace=wrap;html=1;" parent="1" vertex="1">
          <mxGeometry x="1770" y="730" width="190" height="84" as="geometry" />
        </mxCell>
        <mxCell id="pagqS9b1QipSSQt8SLFa-54" value="" style="line;strokeWidth=1;fillColor=none;align=left;verticalAlign=middle;spacingTop=-1;spacingLeft=3;spacingRight=3;rotatable=0;labelPosition=right;points=[];portConstraint=eastwest;strokeColor=inherit;" parent="pagqS9b1QipSSQt8SLFa-53" vertex="1">
          <mxGeometry y="26" width="190" height="8" as="geometry" />
        </mxCell>
        <mxCell id="pagqS9b1QipSSQt8SLFa-55" value="BigPotion(name: String, levelDefense : int, idObject : int)" style="text;strokeColor=none;fillColor=none;align=left;verticalAlign=top;spacingLeft=4;spacingRight=4;overflow=hidden;rotatable=0;points=[[0,0.5],[1,0.5]];portConstraint=eastwest;whiteSpace=wrap;html=1;" parent="pagqS9b1QipSSQt8SLFa-53" vertex="1">
          <mxGeometry y="34" width="190" height="50" as="geometry" />
        </mxCell>
        <mxCell id="pagqS9b1QipSSQt8SLFa-56" value="StandardPotion" style="swimlane;fontStyle=1;align=center;verticalAlign=top;childLayout=stackLayout;horizontal=1;startSize=26;horizontalStack=0;resizeParent=1;resizeParentMax=0;resizeLast=0;collapsible=1;marginBottom=0;whiteSpace=wrap;html=1;" parent="1" vertex="1">
          <mxGeometry x="1770" y="860" width="190" height="84" as="geometry" />
        </mxCell>
        <mxCell id="pagqS9b1QipSSQt8SLFa-57" value="" style="line;strokeWidth=1;fillColor=none;align=left;verticalAlign=middle;spacingTop=-1;spacingLeft=3;spacingRight=3;rotatable=0;labelPosition=right;points=[];portConstraint=eastwest;strokeColor=inherit;" parent="pagqS9b1QipSSQt8SLFa-56" vertex="1">
          <mxGeometry y="26" width="190" height="8" as="geometry" />
        </mxCell>
        <mxCell id="pagqS9b1QipSSQt8SLFa-58" value="StandardPotion(name: String, levelDefense : int, idObject : int)" style="text;strokeColor=none;fillColor=none;align=left;verticalAlign=top;spacingLeft=4;spacingRight=4;overflow=hidden;rotatable=0;points=[[0,0.5],[1,0.5]];portConstraint=eastwest;whiteSpace=wrap;html=1;" parent="pagqS9b1QipSSQt8SLFa-56" vertex="1">
          <mxGeometry y="34" width="190" height="50" as="geometry" />
        </mxCell>
        <mxCell id="pagqS9b1QipSSQt8SLFa-59" value="Fireball" style="swimlane;fontStyle=1;align=center;verticalAlign=top;childLayout=stackLayout;horizontal=1;startSize=26;horizontalStack=0;resizeParent=1;resizeParentMax=0;resizeLast=0;collapsible=1;marginBottom=0;whiteSpace=wrap;html=1;" parent="1" vertex="1">
          <mxGeometry x="2010" y="730" width="190" height="84" as="geometry" />
        </mxCell>
        <mxCell id="pagqS9b1QipSSQt8SLFa-60" value="" style="line;strokeWidth=1;fillColor=none;align=left;verticalAlign=middle;spacingTop=-1;spacingLeft=3;spacingRight=3;rotatable=0;labelPosition=right;points=[];portConstraint=eastwest;strokeColor=inherit;" parent="pagqS9b1QipSSQt8SLFa-59" vertex="1">
          <mxGeometry y="26" width="190" height="8" as="geometry" />
        </mxCell>
        <mxCell id="pagqS9b1QipSSQt8SLFa-61" value="Fireball(name: String, levelDefense : int, idObject : int)" style="text;strokeColor=none;fillColor=none;align=left;verticalAlign=top;spacingLeft=4;spacingRight=4;overflow=hidden;rotatable=0;points=[[0,0.5],[1,0.5]];portConstraint=eastwest;whiteSpace=wrap;html=1;" parent="pagqS9b1QipSSQt8SLFa-59" vertex="1">
          <mxGeometry y="34" width="190" height="50" as="geometry" />
        </mxCell>
        <mxCell id="pagqS9b1QipSSQt8SLFa-62" value="Flash" style="swimlane;fontStyle=1;align=center;verticalAlign=top;childLayout=stackLayout;horizontal=1;startSize=26;horizontalStack=0;resizeParent=1;resizeParentMax=0;resizeLast=0;collapsible=1;marginBottom=0;whiteSpace=wrap;html=1;" parent="1" vertex="1">
          <mxGeometry x="2010" y="860" width="190" height="84" as="geometry" />
        </mxCell>
        <mxCell id="pagqS9b1QipSSQt8SLFa-63" value="" style="line;strokeWidth=1;fillColor=none;align=left;verticalAlign=middle;spacingTop=-1;spacingLeft=3;spacingRight=3;rotatable=0;labelPosition=right;points=[];portConstraint=eastwest;strokeColor=inherit;" parent="pagqS9b1QipSSQt8SLFa-62" vertex="1">
          <mxGeometry y="26" width="190" height="8" as="geometry" />
        </mxCell>
        <mxCell id="pagqS9b1QipSSQt8SLFa-64" value="Flash(name: String, levelDefense : int, idObject : int)" style="text;strokeColor=none;fillColor=none;align=left;verticalAlign=top;spacingLeft=4;spacingRight=4;overflow=hidden;rotatable=0;points=[[0,0.5],[1,0.5]];portConstraint=eastwest;whiteSpace=wrap;html=1;" parent="pagqS9b1QipSSQt8SLFa-62" vertex="1">
          <mxGeometry y="34" width="190" height="50" as="geometry" />
        </mxCell>
        <mxCell id="pagqS9b1QipSSQt8SLFa-65" value="Mace" style="swimlane;fontStyle=1;align=center;verticalAlign=top;childLayout=stackLayout;horizontal=1;startSize=26;horizontalStack=0;resizeParent=1;resizeParentMax=0;resizeLast=0;collapsible=1;marginBottom=0;whiteSpace=wrap;html=1;" parent="1" vertex="1">
          <mxGeometry x="2280" y="730" width="190" height="84" as="geometry" />
        </mxCell>
        <mxCell id="pagqS9b1QipSSQt8SLFa-66" value="" style="line;strokeWidth=1;fillColor=none;align=left;verticalAlign=middle;spacingTop=-1;spacingLeft=3;spacingRight=3;rotatable=0;labelPosition=right;points=[];portConstraint=eastwest;strokeColor=inherit;" parent="pagqS9b1QipSSQt8SLFa-65" vertex="1">
          <mxGeometry y="26" width="190" height="8" as="geometry" />
        </mxCell>
        <mxCell id="pagqS9b1QipSSQt8SLFa-67" value="Mace(name: String, levelDefense : int, idObject : int)" style="text;strokeColor=none;fillColor=none;align=left;verticalAlign=top;spacingLeft=4;spacingRight=4;overflow=hidden;rotatable=0;points=[[0,0.5],[1,0.5]];portConstraint=eastwest;whiteSpace=wrap;html=1;" parent="pagqS9b1QipSSQt8SLFa-65" vertex="1">
          <mxGeometry y="34" width="190" height="50" as="geometry" />
        </mxCell>
        <mxCell id="pagqS9b1QipSSQt8SLFa-68" value="Sword" style="swimlane;fontStyle=1;align=center;verticalAlign=top;childLayout=stackLayout;horizontal=1;startSize=26;horizontalStack=0;resizeParent=1;resizeParentMax=0;resizeLast=0;collapsible=1;marginBottom=0;whiteSpace=wrap;html=1;" parent="1" vertex="1">
          <mxGeometry x="2280" y="860" width="190" height="84" as="geometry" />
        </mxCell>
        <mxCell id="pagqS9b1QipSSQt8SLFa-69" value="" style="line;strokeWidth=1;fillColor=none;align=left;verticalAlign=middle;spacingTop=-1;spacingLeft=3;spacingRight=3;rotatable=0;labelPosition=right;points=[];portConstraint=eastwest;strokeColor=inherit;" parent="pagqS9b1QipSSQt8SLFa-68" vertex="1">
          <mxGeometry y="26" width="190" height="8" as="geometry" />
        </mxCell>
        <mxCell id="pagqS9b1QipSSQt8SLFa-70" value="Sword(name: String, levelDefense : int, idObject : int)" style="text;strokeColor=none;fillColor=none;align=left;verticalAlign=top;spacingLeft=4;spacingRight=4;overflow=hidden;rotatable=0;points=[[0,0.5],[1,0.5]];portConstraint=eastwest;whiteSpace=wrap;html=1;" parent="pagqS9b1QipSSQt8SLFa-68" vertex="1">
          <mxGeometry y="34" width="190" height="50" as="geometry" />
        </mxCell>
        <mxCell id="pagqS9b1QipSSQt8SLFa-74" style="edgeStyle=orthogonalEdgeStyle;rounded=0;orthogonalLoop=1;jettySize=auto;html=1;entryX=-0.002;entryY=-0.002;entryDx=0;entryDy=0;entryPerimeter=0;" parent="1" source="pagqS9b1QipSSQt8SLFa-52" target="pagqS9b1QipSSQt8SLFa-70" edge="1">
          <mxGeometry relative="1" as="geometry">
            <Array as="points">
              <mxPoint x="2280" y="675" />
            </Array>
          </mxGeometry>
        </mxCell>
        <mxCell id="pagqS9b1QipSSQt8SLFa-77" style="edgeStyle=orthogonalEdgeStyle;rounded=0;orthogonalLoop=1;jettySize=auto;html=1;entryX=-0.016;entryY=0.135;entryDx=0;entryDy=0;entryPerimeter=0;" parent="1" source="kYztOx51puu3Mf80ylwT-41" target="pagqS9b1QipSSQt8SLFa-55" edge="1">
          <mxGeometry relative="1" as="geometry" />
        </mxCell>
        <mxCell id="pagqS9b1QipSSQt8SLFa-78" style="edgeStyle=orthogonalEdgeStyle;rounded=0;orthogonalLoop=1;jettySize=auto;html=1;entryX=-0.011;entryY=0.04;entryDx=0;entryDy=0;entryPerimeter=0;" parent="1" source="kYztOx51puu3Mf80ylwT-41" target="pagqS9b1QipSSQt8SLFa-58" edge="1">
          <mxGeometry relative="1" as="geometry">
            <Array as="points">
              <mxPoint x="1850" y="680" />
              <mxPoint x="1750" y="680" />
              <mxPoint x="1750" y="896" />
            </Array>
          </mxGeometry>
        </mxCell>
        <mxCell id="pagqS9b1QipSSQt8SLFa-79" style="edgeStyle=orthogonalEdgeStyle;rounded=0;orthogonalLoop=1;jettySize=auto;html=1;entryX=1.007;entryY=0.187;entryDx=0;entryDy=0;entryPerimeter=0;" parent="1" source="kYztOx51puu3Mf80ylwT-54" target="pagqS9b1QipSSQt8SLFa-61" edge="1">
          <mxGeometry relative="1" as="geometry" />
        </mxCell>
        <mxCell id="pagqS9b1QipSSQt8SLFa-80" style="edgeStyle=orthogonalEdgeStyle;rounded=0;orthogonalLoop=1;jettySize=auto;html=1;entryX=1.002;entryY=0.161;entryDx=0;entryDy=0;entryPerimeter=0;" parent="1" source="kYztOx51puu3Mf80ylwT-54" target="pagqS9b1QipSSQt8SLFa-64" edge="1">
          <mxGeometry relative="1" as="geometry" />
        </mxCell>
        <mxCell id="pagqS9b1QipSSQt8SLFa-81" style="edgeStyle=orthogonalEdgeStyle;rounded=0;orthogonalLoop=1;jettySize=auto;html=1;entryX=1.009;entryY=0.257;entryDx=0;entryDy=0;entryPerimeter=0;" parent="1" source="kYztOx51puu3Mf80ylwT-58" target="pagqS9b1QipSSQt8SLFa-67" edge="1">
          <mxGeometry relative="1" as="geometry">
            <Array as="points">
              <mxPoint x="2490" y="777" />
            </Array>
          </mxGeometry>
        </mxCell>
        <mxCell id="pagqS9b1QipSSQt8SLFa-82" style="edgeStyle=orthogonalEdgeStyle;rounded=0;orthogonalLoop=1;jettySize=auto;html=1;entryX=1;entryY=0.248;entryDx=0;entryDy=0;entryPerimeter=0;" parent="1" source="kYztOx51puu3Mf80ylwT-58" target="pagqS9b1QipSSQt8SLFa-70" edge="1">
          <mxGeometry relative="1" as="geometry">
            <Array as="points">
              <mxPoint x="2490" y="906" />
            </Array>
          </mxGeometry>
        </mxCell>
        <mxCell id="pagqS9b1QipSSQt8SLFa-89" style="edgeStyle=orthogonalEdgeStyle;rounded=0;orthogonalLoop=1;jettySize=auto;html=1;entryX=0;entryY=0;entryDx=40;entryDy=14;entryPerimeter=0;" parent="1" source="mu9f99pklsNn_qZX0C5U-1" target="pagqS9b1QipSSQt8SLFa-20" edge="1">
          <mxGeometry relative="1" as="geometry" />
        </mxCell>
        <mxCell id="pagqS9b1QipSSQt8SLFa-90" style="edgeStyle=orthogonalEdgeStyle;rounded=0;orthogonalLoop=1;jettySize=auto;html=1;entryX=0;entryY=0;entryDx=40;entryDy=14;entryPerimeter=0;" parent="1" source="mu9f99pklsNn_qZX0C5U-1" target="pagqS9b1QipSSQt8SLFa-52" edge="1">
          <mxGeometry relative="1" as="geometry">
            <Array as="points">
              <mxPoint x="2050" y="60" />
              <mxPoint x="2050" y="650" />
              <mxPoint x="2100" y="650" />
            </Array>
          </mxGeometry>
        </mxCell>
        <mxCell id="pagqS9b1QipSSQt8SLFa-92" style="edgeStyle=orthogonalEdgeStyle;rounded=0;orthogonalLoop=1;jettySize=auto;html=1;entryX=0;entryY=0;entryDx=40;entryDy=14;entryPerimeter=0;" parent="1" source="mu9f99pklsNn_qZX0C5U-1" target="pagqS9b1QipSSQt8SLFa-27" edge="1">
          <mxGeometry relative="1" as="geometry" />
        </mxCell>
        <mxCell id="pagqS9b1QipSSQt8SLFa-94" style="edgeStyle=orthogonalEdgeStyle;rounded=0;orthogonalLoop=1;jettySize=auto;html=1;entryX=0;entryY=0;entryDx=40;entryDy=14;entryPerimeter=0;" parent="1" source="mu9f99pklsNn_qZX0C5U-1" target="pagqS9b1QipSSQt8SLFa-37" edge="1">
          <mxGeometry relative="1" as="geometry" />
        </mxCell>
        <mxCell id="pagqS9b1QipSSQt8SLFa-96" value="Fight" style="swimlane;fontStyle=1;align=center;verticalAlign=top;childLayout=stackLayout;horizontal=1;startSize=26;horizontalStack=0;resizeParent=1;resizeParentMax=0;resizeLast=0;collapsible=1;marginBottom=0;whiteSpace=wrap;html=1;" parent="1" vertex="1">
          <mxGeometry x="2080" y="1135" width="450" height="360" as="geometry" />
        </mxCell>
        <mxCell id="pagqS9b1QipSSQt8SLFa-98" value="" style="line;strokeWidth=1;fillColor=none;align=left;verticalAlign=middle;spacingTop=-1;spacingLeft=3;spacingRight=3;rotatable=0;labelPosition=right;points=[];portConstraint=eastwest;strokeColor=inherit;" parent="pagqS9b1QipSSQt8SLFa-96" vertex="1">
          <mxGeometry y="26" width="450" height="8" as="geometry" />
        </mxCell>
        <mxCell id="pagqS9b1QipSSQt8SLFa-99" value="&lt;div style=&quot;line-height: 110%;&quot;&gt;playerAttack(user : User, menu : Menu, enemie : Enemie, boardClass : Board, game : Game, boardInt : int[], caseNumber : int) : void&lt;div&gt;enemyAttack(user : User, menu : Menu, enemie : Enemie, boardClass : Board, game : Game, boardInt : int[], caseNumber : int) : void&lt;/div&gt;&lt;div&gt;espace(user : User, menu : Menu, enemie : Enemie, boardClass : Board, game : Game, boardInt : int[], caseNumber : int) : void&lt;/div&gt;&lt;div&gt;verifiedPerson(attacker ; int, receiving : int, ,enemie : Enemie, type : String,&amp;nbsp; user : User, menu : Menu, enemie : Enemie, boardClass : Board, game : Game, boardInt : int[], caseNumber : int) : void&lt;/div&gt;&lt;div&gt;modifyLifePoints(&lt;span style=&quot;background-color: transparent; color: light-dark(rgb(0, 0, 0), rgb(255, 255, 255));&quot;&gt;type : String&lt;/span&gt;&lt;span style=&quot;background-color: transparent; color: light-dark(rgb(0, 0, 0), rgb(255, 255, 255));&quot;&gt;&amp;nbsp;,enemie : Enemie, difference : int, user : User, menu : Menu, enemie : Enemie, boardClass : Board, game : Game, boardInt : int[], caseNumber : int) : void&lt;/span&gt;&lt;/div&gt;&lt;div&gt;progressesFight(&lt;span style=&quot;color: light-dark(rgb(0, 0, 0), rgb(255, 255, 255)); background-color: transparent;&quot;&gt;menu : Menu, boardClass : Board,&lt;/span&gt;&lt;span style=&quot;background-color: transparent; color: light-dark(rgb(0, 0, 0), rgb(255, 255, 255));&quot;&gt;enemie : Enemie,&lt;/span&gt;&lt;span style=&quot;background-color: transparent; color: light-dark(rgb(0, 0, 0), rgb(255, 255, 255));&quot;&gt;&amp;nbsp;&lt;/span&gt;&lt;span style=&quot;background-color: transparent; color: light-dark(rgb(0, 0, 0), rgb(255, 255, 255));&quot;&gt;user : User,&amp;nbsp;&lt;/span&gt;&lt;span style=&quot;background-color: transparent; color: light-dark(rgb(0, 0, 0), rgb(255, 255, 255));&quot;&gt;&amp;nbsp;game : Game, boardInt : int[], caseNumber : int) : void&lt;/span&gt;&lt;/div&gt;&lt;div&gt;deadPerson(type : String&lt;span style=&quot;color: light-dark(rgb(0, 0, 0), rgb(255, 255, 255)); background-color: transparent;&quot;&gt;,&amp;nbsp;&lt;/span&gt;&lt;span style=&quot;background-color: transparent; color: light-dark(rgb(0, 0, 0), rgb(255, 255, 255));&quot;&gt;&amp;nbsp;&lt;/span&gt;&lt;span style=&quot;background-color: transparent; color: light-dark(rgb(0, 0, 0), rgb(255, 255, 255));&quot;&gt;user : User&amp;nbsp;&lt;/span&gt;&lt;span style=&quot;background-color: transparent; color: light-dark(rgb(0, 0, 0), rgb(255, 255, 255));&quot;&gt;,&lt;/span&gt;&lt;span style=&quot;background-color: transparent; color: light-dark(rgb(0, 0, 0), rgb(255, 255, 255));&quot;&gt;&amp;nbsp;&lt;/span&gt;&lt;span style=&quot;background-color: transparent; color: light-dark(rgb(0, 0, 0), rgb(255, 255, 255));&quot;&gt;menu : Menu,&amp;nbsp;&lt;/span&gt;&lt;span style=&quot;background-color: transparent; color: light-dark(rgb(0, 0, 0), rgb(255, 255, 255));&quot;&gt;game : Game,&amp;nbsp;&lt;/span&gt;&lt;span style=&quot;background-color: transparent; color: light-dark(rgb(0, 0, 0), rgb(255, 255, 255));&quot;&gt;boardClass : Board&lt;/span&gt;&lt;span style=&quot;background-color: transparent; color: light-dark(rgb(0, 0, 0), rgb(255, 255, 255));&quot;&gt;) : void&lt;/span&gt;&lt;/div&gt;&lt;div&gt;displayAttack(type : String&lt;span style=&quot;color: light-dark(rgb(0, 0, 0), rgb(255, 255, 255)); background-color: transparent;&quot;&gt;, degat : int&lt;/span&gt;&lt;span style=&quot;color: light-dark(rgb(0, 0, 0), rgb(255, 255, 255)); background-color: transparent;&quot;&gt;) : void&lt;/span&gt;&lt;span style=&quot;background-color: transparent; color: light-dark(rgb(0, 0, 0), rgb(255, 255, 255));&quot;&gt;&lt;/span&gt;&lt;/div&gt;&lt;div&gt;verificationHaveOffensive(&lt;span style=&quot;color: light-dark(rgb(0, 0, 0), rgb(255, 255, 255)); background-color: transparent;&quot;&gt;attackBase : int, character : Character&lt;/span&gt;&lt;span style=&quot;color: light-dark(rgb(0, 0, 0), rgb(255, 255, 255)); background-color: transparent;&quot;&gt;) : int&lt;/span&gt;&lt;span style=&quot;color: light-dark(rgb(0, 0, 0), rgb(255, 255, 255)); background-color: transparent;&quot;&gt;&lt;/span&gt;&lt;/div&gt;&lt;div&gt;verificationHaveDefensive(&lt;span style=&quot;color: light-dark(rgb(0, 0, 0), rgb(255, 255, 255)); background-color: transparent;&quot;&gt;user : User&lt;/span&gt;&lt;span style=&quot;color: light-dark(rgb(0, 0, 0), rgb(255, 255, 255)); background-color: transparent;&quot;&gt;) : boolean&lt;/span&gt;&lt;span style=&quot;color: light-dark(rgb(0, 0, 0), rgb(255, 255, 255)); background-color: transparent;&quot;&gt;&lt;/span&gt;&lt;/div&gt;&lt;div&gt;havePotion(user :&amp;nbsp;&lt;span style=&quot;background-color: transparent; color: light-dark(rgb(0, 0, 0), rgb(255, 255, 255));&quot;&gt;User&lt;/span&gt;&lt;span style=&quot;background-color: transparent; color: light-dark(rgb(0, 0, 0), rgb(255, 255, 255));&quot;&gt;, menu :&amp;nbsp;&lt;/span&gt;&lt;span style=&quot;background-color: transparent; color: light-dark(rgb(0, 0, 0), rgb(255, 255, 255));&quot;&gt;Menu&lt;/span&gt;&lt;span style=&quot;background-color: transparent; color: light-dark(rgb(0, 0, 0), rgb(255, 255, 255));&quot;&gt;, borderClass :&amp;nbsp;&lt;/span&gt;&lt;span style=&quot;background-color: transparent; color: light-dark(rgb(0, 0, 0), rgb(255, 255, 255));&quot;&gt;Board&lt;/span&gt;&lt;span style=&quot;background-color: transparent; color: light-dark(rgb(0, 0, 0), rgb(255, 255, 255));&quot;&gt;, game :&amp;nbsp;&lt;/span&gt;&lt;span style=&quot;background-color: transparent; color: light-dark(rgb(0, 0, 0), rgb(255, 255, 255));&quot;&gt;Game&lt;/span&gt;&lt;span style=&quot;background-color: transparent; color: light-dark(rgb(0, 0, 0), rgb(255, 255, 255));&quot;&gt;, fight :&amp;nbsp;&lt;/span&gt;&lt;span style=&quot;background-color: transparent; color: light-dark(rgb(0, 0, 0), rgb(255, 255, 255));&quot;&gt;Fight&lt;/span&gt;&lt;span style=&quot;background-color: transparent; color: light-dark(rgb(0, 0, 0), rgb(255, 255, 255));&quot;&gt;, attackLevel :&amp;nbsp;&lt;/span&gt;&lt;span style=&quot;background-color: transparent; color: light-dark(rgb(0, 0, 0), rgb(255, 255, 255));&quot;&gt;int[][]&lt;/span&gt;&lt;span style=&quot;background-color: transparent; color: light-dark(rgb(0, 0, 0), rgb(255, 255, 255));&quot;&gt;, lifePoints :&amp;nbsp;&lt;/span&gt;&lt;span style=&quot;background-color: transparent; color: light-dark(rgb(0, 0, 0), rgb(255, 255, 255));&quot;&gt;int&lt;/span&gt;&lt;span style=&quot;background-color: transparent; color: light-dark(rgb(0, 0, 0), rgb(255, 255, 255));&quot;&gt;, enemie :&amp;nbsp;&lt;/span&gt;&lt;span style=&quot;background-color: transparent; color: light-dark(rgb(0, 0, 0), rgb(255, 255, 255));&quot;&gt;Enemie&lt;/span&gt;&lt;span style=&quot;background-color: transparent; color: light-dark(rgb(0, 0, 0), rgb(255, 255, 255));&quot;&gt;, type:&amp;nbsp;&lt;/span&gt;&lt;span style=&quot;background-color: transparent; color: light-dark(rgb(0, 0, 0), rgb(255, 255, 255));&quot;&gt;String&lt;/span&gt;&lt;span style=&quot;background-color: transparent; color: light-dark(rgb(0, 0, 0), rgb(255, 255, 255));&quot;&gt;, boardInt :&amp;nbsp;&lt;/span&gt;&lt;span style=&quot;background-color: transparent; color: light-dark(rgb(0, 0, 0), rgb(255, 255, 255));&quot;&gt;int[]&lt;/span&gt;&lt;span style=&quot;background-color: transparent; color: light-dark(rgb(0, 0, 0), rgb(255, 255, 255));&quot;&gt;, caseNumber:&amp;nbsp;&lt;/span&gt;&lt;span style=&quot;background-color: transparent; color: light-dark(rgb(0, 0, 0), rgb(255, 255, 255));&quot;&gt;int&lt;/span&gt;&lt;span style=&quot;background-color: transparent; color: light-dark(rgb(0, 0, 0), rgb(255, 255, 255));&quot;&gt;) : void&lt;/span&gt;&lt;/div&gt;&lt;div&gt;deletePotion(character : Character) : void&lt;/div&gt;&lt;/div&gt;" style="text;strokeColor=none;fillColor=none;align=left;verticalAlign=top;spacingLeft=4;spacingRight=4;overflow=hidden;rotatable=0;points=[[0,0.5],[1,0.5]];portConstraint=eastwest;whiteSpace=wrap;html=1;" parent="pagqS9b1QipSSQt8SLFa-96" vertex="1">
          <mxGeometry y="34" width="450" height="326" as="geometry" />
        </mxCell>
        <mxCell id="pagqS9b1QipSSQt8SLFa-101" value="User" style="swimlane;fontStyle=1;align=center;verticalAlign=top;childLayout=stackLayout;horizontal=1;startSize=26;horizontalStack=0;resizeParent=1;resizeParentMax=0;resizeLast=0;collapsible=1;marginBottom=0;whiteSpace=wrap;html=1;" parent="1" vertex="1">
          <mxGeometry x="2570" y="1135" width="450" height="270" as="geometry" />
        </mxCell>
        <mxCell id="pagqS9b1QipSSQt8SLFa-102" value="&lt;div&gt;isWeapon :&amp;nbsp;&lt;span style=&quot;background-color: transparent;&quot;&gt;Weapon&lt;/span&gt;&lt;/div&gt;&lt;div&gt;isSpell:&amp;nbsp;&lt;span style=&quot;background-color: transparent;&quot;&gt;Spell&lt;/span&gt;&lt;/div&gt;&lt;div&gt;&lt;span style=&quot;background-color: transparent; color: light-dark(rgb(0, 0, 0), rgb(255, 255, 255));&quot;&gt;is&lt;/span&gt;&lt;span style=&quot;background-color: transparent;&quot;&gt;Potion&lt;/span&gt;&lt;span style=&quot;background-color: transparent; color: light-dark(rgb(0, 0, 0), rgb(255, 255, 255));&quot;&gt;&amp;nbsp;:&amp;nbsp;&lt;/span&gt;&lt;span style=&quot;background-color: transparent; color: light-dark(rgb(0, 0, 0), rgb(255, 255, 255));&quot;&gt;Potion&lt;/span&gt;&lt;/div&gt;" style="text;strokeColor=none;fillColor=none;align=left;verticalAlign=top;spacingLeft=4;spacingRight=4;overflow=hidden;rotatable=0;points=[[0,0.5],[1,0.5]];portConstraint=eastwest;whiteSpace=wrap;html=1;" parent="pagqS9b1QipSSQt8SLFa-101" vertex="1">
          <mxGeometry y="26" width="450" height="54" as="geometry" />
        </mxCell>
        <mxCell id="pagqS9b1QipSSQt8SLFa-103" value="" style="line;strokeWidth=1;fillColor=none;align=left;verticalAlign=middle;spacingTop=-1;spacingLeft=3;spacingRight=3;rotatable=0;labelPosition=right;points=[];portConstraint=eastwest;strokeColor=inherit;" parent="pagqS9b1QipSSQt8SLFa-101" vertex="1">
          <mxGeometry y="80" width="450" height="8" as="geometry" />
        </mxCell>
        <mxCell id="pagqS9b1QipSSQt8SLFa-104" value="openBox(boardClass : Board, user : User,boardInt : &amp;nbsp;int[]&amp;nbsp;, caseNumber : int,&amp;nbsp; menu : Menu, game : Game) : void&lt;div&gt;whatObject(idObject : int) : String[][][]&lt;/div&gt;&lt;div&gt;displayToPlayer( menu :&amp;nbsp;&lt;span style=&quot;background-color: transparent; color: light-dark(rgb(0, 0, 0), rgb(255, 255, 255));&quot;&gt;Menu&lt;/span&gt;&lt;span style=&quot;background-color: transparent; color: light-dark(rgb(0, 0, 0), rgb(255, 255, 255));&quot;&gt;,&amp;nbsp; allData :&amp;nbsp;&lt;/span&gt;&lt;span style=&quot;background-color: transparent;&quot;&gt;String[][][]&lt;/span&gt;&lt;span style=&quot;background-color: transparent; color: light-dark(rgb(0, 0, 0), rgb(255, 255, 255));&quot;&gt;,&amp;nbsp; boardClass :&amp;nbsp;&lt;/span&gt;&lt;span style=&quot;background-color: transparent;&quot;&gt;Board&lt;/span&gt;&lt;span style=&quot;background-color: transparent; color: light-dark(rgb(0, 0, 0), rgb(255, 255, 255));&quot;&gt;,&amp;nbsp; user :&amp;nbsp;&lt;/span&gt;&lt;span style=&quot;background-color: transparent;&quot;&gt;User&lt;/span&gt;&lt;span style=&quot;background-color: transparent; color: light-dark(rgb(0, 0, 0), rgb(255, 255, 255));&quot;&gt;,&amp;nbsp; game :&amp;nbsp;&lt;/span&gt;&lt;span style=&quot;background-color: transparent;&quot;&gt;Game&lt;/span&gt;&lt;span style=&quot;background-color: transparent; color: light-dark(rgb(0, 0, 0), rgb(255, 255, 255));&quot;&gt;) : void&lt;/span&gt;&lt;/div&gt;&lt;div&gt;&lt;span style=&quot;background-color: transparent;&quot;&gt;verificationIfCanUse( object :&amp;nbsp;&lt;/span&gt;&lt;span style=&quot;background-color: transparent; color: light-dark(rgb(0, 0, 0), rgb(255, 255, 255));&quot;&gt;String[][][]&lt;/span&gt;&lt;span style=&quot;background-color: transparent; color: light-dark(rgb(0, 0, 0), rgb(255, 255, 255));&quot;&gt;,&amp;nbsp; character :&amp;nbsp;&lt;/span&gt;&lt;span style=&quot;background-color: transparent; color: light-dark(rgb(0, 0, 0), rgb(255, 255, 255));&quot;&gt;Character&lt;/span&gt;&lt;span style=&quot;background-color: transparent; color: light-dark(rgb(0, 0, 0), rgb(255, 255, 255));&quot;&gt;) : boolean&lt;/span&gt;&lt;/div&gt;&lt;div&gt;haveAlreadyAObject( user :&amp;nbsp;&lt;span style=&quot;background-color: transparent; color: light-dark(rgb(0, 0, 0), rgb(255, 255, 255));&quot;&gt;User&lt;/span&gt;&lt;span style=&quot;background-color: transparent; color: light-dark(rgb(0, 0, 0), rgb(255, 255, 255));&quot;&gt;,&amp;nbsp; object :&amp;nbsp;&lt;/span&gt;&lt;span style=&quot;background-color: transparent; color: light-dark(rgb(0, 0, 0), rgb(255, 255, 255));&quot;&gt;String[][][]&lt;/span&gt;&lt;span style=&quot;background-color: transparent; color: light-dark(rgb(0, 0, 0), rgb(255, 255, 255));&quot;&gt;,&amp;nbsp; menu :&amp;nbsp;&lt;/span&gt;&lt;span style=&quot;background-color: transparent; color: light-dark(rgb(0, 0, 0), rgb(255, 255, 255));&quot;&gt;Menu&lt;/span&gt;&lt;span style=&quot;background-color: transparent; color: light-dark(rgb(0, 0, 0), rgb(255, 255, 255));&quot;&gt;,&amp;nbsp; boardClass :&amp;nbsp;&lt;/span&gt;&lt;span style=&quot;background-color: transparent; color: light-dark(rgb(0, 0, 0), rgb(255, 255, 255));&quot;&gt;Board&lt;/span&gt;&lt;span style=&quot;background-color: transparent; color: light-dark(rgb(0, 0, 0), rgb(255, 255, 255));&quot;&gt;, game :&amp;nbsp;&lt;/span&gt;&lt;span style=&quot;background-color: transparent; color: light-dark(rgb(0, 0, 0), rgb(255, 255, 255));&quot;&gt;Game&lt;/span&gt;&lt;span style=&quot;background-color: transparent; color: light-dark(rgb(0, 0, 0), rgb(255, 255, 255));&quot;&gt;) : boolean&lt;/span&gt;&lt;/div&gt;&lt;div&gt;&lt;span style=&quot;background-color: transparent;&quot;&gt;verificationGiveObjectToPlayer(user :&amp;nbsp;&lt;/span&gt;&lt;span style=&quot;background-color: transparent; color: light-dark(rgb(0, 0, 0), rgb(255, 255, 255));&quot;&gt;User&lt;/span&gt;&lt;span style=&quot;background-color: transparent; color: light-dark(rgb(0, 0, 0), rgb(255, 255, 255));&quot;&gt;, object :&amp;nbsp;&lt;/span&gt;&lt;span style=&quot;background-color: transparent; color: light-dark(rgb(0, 0, 0), rgb(255, 255, 255));&quot;&gt;String[][][]&lt;/span&gt;&lt;span style=&quot;background-color: transparent; color: light-dark(rgb(0, 0, 0), rgb(255, 255, 255));&quot;&gt;&amp;nbsp;&lt;/span&gt;&lt;span style=&quot;background-color: transparent; color: light-dark(rgb(0, 0, 0), rgb(255, 255, 255));&quot;&gt;,&amp;nbsp; menu :&amp;nbsp;&lt;/span&gt;&lt;span style=&quot;background-color: transparent; color: light-dark(rgb(0, 0, 0), rgb(255, 255, 255));&quot;&gt;Menu&lt;/span&gt;&lt;span style=&quot;background-color: transparent; color: light-dark(rgb(0, 0, 0), rgb(255, 255, 255));&quot;&gt;,&amp;nbsp; boardClass :&amp;nbsp;&lt;/span&gt;&lt;span style=&quot;background-color: transparent; color: light-dark(rgb(0, 0, 0), rgb(255, 255, 255));&quot;&gt;Board&lt;/span&gt;&lt;span style=&quot;background-color: transparent; color: light-dark(rgb(0, 0, 0), rgb(255, 255, 255));&quot;&gt;,&amp;nbsp; game :&lt;/span&gt;&lt;span style=&quot;background-color: transparent; color: light-dark(rgb(0, 0, 0), rgb(255, 255, 255));&quot;&gt;Game&lt;/span&gt;&lt;span style=&quot;background-color: transparent; color: light-dark(rgb(0, 0, 0), rgb(255, 255, 255));&quot;&gt;) : void&lt;/span&gt;&lt;/div&gt;&lt;div&gt;&lt;span style=&quot;background-color: transparent;&quot;&gt;addObjectToPlayer( object :&amp;nbsp;&lt;/span&gt;&lt;span style=&quot;background-color: transparent; color: light-dark(rgb(0, 0, 0), rgb(255, 255, 255));&quot;&gt;String[][][]&lt;/span&gt;&lt;span style=&quot;background-color: transparent; color: light-dark(rgb(0, 0, 0), rgb(255, 255, 255));&quot;&gt;,&amp;nbsp; character :&amp;nbsp;&lt;/span&gt;&lt;span style=&quot;background-color: transparent; color: light-dark(rgb(0, 0, 0), rgb(255, 255, 255));&quot;&gt;Character&lt;/span&gt;&lt;span style=&quot;background-color: transparent; color: light-dark(rgb(0, 0, 0), rgb(255, 255, 255));&quot;&gt;,&amp;nbsp; menu :&amp;nbsp;&lt;/span&gt;&lt;span style=&quot;background-color: transparent; color: light-dark(rgb(0, 0, 0), rgb(255, 255, 255));&quot;&gt;Menu&lt;/span&gt;&lt;span style=&quot;background-color: transparent; color: light-dark(rgb(0, 0, 0), rgb(255, 255, 255));&quot;&gt;) : void&lt;/span&gt;&lt;/div&gt;" style="text;strokeColor=none;fillColor=none;align=left;verticalAlign=top;spacingLeft=4;spacingRight=4;overflow=hidden;rotatable=0;points=[[0,0.5],[1,0.5]];portConstraint=eastwest;whiteSpace=wrap;html=1;" parent="pagqS9b1QipSSQt8SLFa-101" vertex="1">
          <mxGeometry y="88" width="450" height="182" as="geometry" />
        </mxCell>
        <mxCell id="pagqS9b1QipSSQt8SLFa-111" style="edgeStyle=orthogonalEdgeStyle;rounded=0;orthogonalLoop=1;jettySize=auto;html=1;entryX=0.481;entryY=0.003;entryDx=0;entryDy=0;entryPerimeter=0;" parent="1" source="mu9f99pklsNn_qZX0C5U-36" target="kYztOx51puu3Mf80ylwT-66" edge="1">
          <mxGeometry relative="1" as="geometry" />
        </mxCell>
        <mxCell id="GvkOkcemFnVWm2Thvm6O-3" value="Enemies" style="swimlane;fontStyle=1;align=center;verticalAlign=top;childLayout=stackLayout;horizontal=1;startSize=26;horizontalStack=0;resizeParent=1;resizeParentMax=0;resizeLast=0;collapsible=1;marginBottom=0;whiteSpace=wrap;html=1;" parent="1" vertex="1">
          <mxGeometry x="342.5" y="1740" width="375" height="150" as="geometry" />
        </mxCell>
        <mxCell id="GvkOkcemFnVWm2Thvm6O-4" value="enemiesPlayer : Enemie&amp;nbsp;" style="text;strokeColor=none;fillColor=none;align=left;verticalAlign=top;spacingLeft=4;spacingRight=4;overflow=hidden;rotatable=0;points=[[0,0.5],[1,0.5]];portConstraint=eastwest;whiteSpace=wrap;html=1;" parent="GvkOkcemFnVWm2Thvm6O-3" vertex="1">
          <mxGeometry y="26" width="375" height="26" as="geometry" />
        </mxCell>
        <mxCell id="GvkOkcemFnVWm2Thvm6O-5" value="" style="line;strokeWidth=1;fillColor=none;align=left;verticalAlign=middle;spacingTop=-1;spacingLeft=3;spacingRight=3;rotatable=0;labelPosition=right;points=[];portConstraint=eastwest;strokeColor=inherit;" parent="GvkOkcemFnVWm2Thvm6O-3" vertex="1">
          <mxGeometry y="52" width="375" height="8" as="geometry" />
        </mxCell>
        <mxCell id="GvkOkcemFnVWm2Thvm6O-6" value="haveEnemies(menu : Menu, boardClass : Board, user : User&amp;nbsp;, game : Game&amp;nbsp;,&amp;nbsp; boardInt : int[], caseNumber : int ) : void&lt;div&gt;haveEnemies(menu : Menu, boardClass : Board, user : User&amp;nbsp;, game : Game&amp;nbsp;,&amp;nbsp; boardInt : int[], caseNumber :&amp;nbsp;int ) : void&lt;/div&gt;&lt;div&gt;createEnemy(&lt;span style=&quot;background-color: transparent; color: light-dark(rgb(0, 0, 0), rgb(255, 255, 255));&quot;&gt;board:&lt;/span&gt;&lt;span style=&quot;background-color: transparent; color: light-dark(rgb(0, 0, 0), rgb(255, 255, 255));&quot;&gt;Board) : void&lt;/span&gt;&lt;/div&gt;" style="text;strokeColor=none;fillColor=none;align=left;verticalAlign=top;spacingLeft=4;spacingRight=4;overflow=hidden;rotatable=0;points=[[0,0.5],[1,0.5]];portConstraint=eastwest;whiteSpace=wrap;html=1;" parent="GvkOkcemFnVWm2Thvm6O-3" vertex="1">
          <mxGeometry y="60" width="375" height="90" as="geometry" />
        </mxCell>
      </root>
    </mxGraphModel>
  </diagram>
</mxfile>
